<svg version="1.1" id="Layer_1" xmlns="http://www.w3.org/2000/svg" xmlns:xlink="http://www.w3.org/1999/xlink" x="0px" y="0px"
	 width="100%" viewBox="0 0 1024 1024" enable-background="new 0 0 1024 1024" xml:space="preserve">
<path fill="#FFFFFE" opacity="1.000000" stroke="none" 
	d="
M546.000000,1025.000000 
	C364.000000,1025.000000 182.500000,1025.000000 1.000000,1025.000000 
	C1.000000,683.666687 1.000000,342.333344 1.000000,1.000000 
	C342.333344,1.000000 683.666687,1.000000 1025.000000,1.000000 
	C1025.000000,342.333344 1025.000000,683.666687 1025.000000,1025.000000 
	C865.500000,1025.000000 706.000000,1025.000000 546.000000,1025.000000 
M498.624329,498.048615 
	C501.227936,498.048615 503.831543,498.048615 506.694946,498.048615 
	C506.694946,473.310425 506.694946,449.237183 506.694946,424.502289 
	C503.670959,424.502289 500.851166,424.793732 498.116669,424.435120 
	C493.836792,423.873810 491.944611,425.774048 490.492920,429.629883 
	C485.685150,442.399963 480.521362,455.036133 475.470581,467.714294 
	C475.021149,468.842407 474.400879,469.902466 473.496918,471.726807 
	C472.411133,469.251221 471.645203,467.610443 470.964081,465.935211 
	C465.888031,453.450531 460.876923,440.939056 455.701508,428.495880 
	C455.077393,426.995300 453.708923,424.869049 452.485474,424.724426 
	C448.442291,424.246613 444.307404,424.544281 440.162292,424.544281 
	C440.162292,449.398804 440.162292,473.437225 440.162292,497.534790 
	C444.594055,497.534790 448.458771,497.534790 452.219238,497.534790 
	C452.219238,481.228271 452.219238,465.369843 452.219238,447.946594 
	C453.476776,450.836090 454.204254,452.403595 454.848419,454.004639 
	C459.134705,464.657623 463.481903,475.287384 467.625153,485.995911 
	C468.736938,488.869446 470.221680,490.106232 473.454803,490.103271 
	C476.798462,490.100220 478.081604,488.572052 479.127747,485.753571 
	C481.211273,480.140045 483.642792,474.656372 485.893707,469.104095 
	C488.670410,462.254761 491.409607,455.390259 494.165039,448.532318 
	C494.961823,451.099915 495.006744,453.492340 494.954315,455.882629 
	C494.676788,468.529785 494.409088,481.177368 494.053528,493.822418 
	C493.978607,496.487579 494.244507,498.550873 498.624329,498.048615 
M832.332275,446.884338 
	C831.426514,447.681763 830.520813,448.479218 829.417969,449.450226 
	C825.626831,443.149200 820.221497,440.043945 813.655640,441.133759 
	C807.867798,442.094421 802.346252,444.659058 796.528381,446.574280 
	C793.795349,441.323456 793.296265,441.118408 785.117554,442.682098 
	C785.117554,461.131989 785.117554,479.611969 785.117554,497.993896 
	C789.654846,497.993896 793.583862,497.993896 797.631226,497.993896 
	C797.769531,496.644531 797.955872,495.667511 797.956543,494.690338 
	C797.964294,484.035217 797.848816,473.378998 797.969421,462.725403 
	C798.029236,457.441345 803.290955,452.864594 809.053101,452.682678 
	C814.575745,452.508331 817.551758,455.375824 818.157654,461.652802 
	C818.380981,463.966217 818.345459,466.308899 818.350037,468.638428 
	C818.368896,478.255188 818.357910,487.872040 818.357910,497.756226 
	C823.099304,497.756226 827.143494,497.756226 831.748230,497.756226 
	C831.748230,495.387085 831.750427,493.431580 831.747803,491.476074 
	C831.735657,482.485901 831.584534,473.492340 831.802979,464.507812 
	C831.859985,462.160828 832.549927,459.490570 833.849731,457.582214 
	C836.639893,453.485901 842.154663,451.755005 846.209656,453.222107 
	C850.890076,454.915466 852.011475,458.946930 852.089783,463.273529 
	C852.273560,473.426270 852.345520,483.584229 852.229919,493.737427 
	C852.191956,497.066559 852.997803,498.471527 856.665344,498.434692 
	C865.790161,498.343018 865.790283,498.516541 865.772278,489.374420 
	C865.758240,482.215424 865.821838,475.055267 865.708435,467.897888 
	C865.647888,464.080475 865.612793,460.214050 864.996582,456.463318 
	C863.248169,445.820953 856.585510,440.110504 845.928650,441.190918 
	C841.435486,441.646454 837.193237,444.576813 832.332275,446.884338 
M648.709717,494.168854 
	C649.523682,494.508331 650.936951,494.702393 651.060059,495.209564 
	C652.472961,501.031250 657.033630,497.799835 660.145142,498.161591 
	C660.776245,498.234924 662.488342,495.129364 662.500977,493.480103 
	C662.678711,470.173004 662.655090,446.864319 662.653748,423.556000 
	C662.653687,422.129211 662.432617,420.702423 662.313721,419.266846 
	C657.737732,419.266846 653.658203,419.266846 648.802368,419.266846 
	C648.802368,428.088989 648.802368,436.566467 648.802368,445.431580 
	C629.476868,434.464050 614.918030,446.690460 612.677979,460.347168 
	C611.576050,467.065002 611.378845,474.406799 612.880615,480.984924 
	C616.998474,499.021942 632.778564,504.793915 648.709717,494.168854 
M610.824951,578.940613 
	C610.237122,576.515015 609.794800,574.042847 609.036011,571.671997 
	C605.941589,562.003662 598.684937,555.916931 589.207947,556.491821 
	C583.873779,556.815369 578.667175,559.240356 572.980713,560.837280 
	C572.980713,553.000732 572.980713,544.299438 572.980713,535.094421 
	C570.045837,535.094421 567.718506,535.351562 565.469238,535.041809 
	C560.519470,534.360229 559.340698,536.469421 559.396912,541.181580 
	C559.657654,563.009399 559.551697,584.841553 559.621155,606.671997 
	C559.628296,608.925293 559.927551,611.177673 560.107666,613.656372 
	C564.818665,613.315552 569.998230,616.123535 571.374329,608.747498 
	C572.549133,609.602173 573.320618,610.171143 574.099976,610.729248 
	C584.649597,618.284363 598.906555,615.685547 606.071594,604.859619 
	C611.137695,597.205261 611.618042,588.635315 610.824951,578.940613 
M502.923065,571.622681 
	C504.405945,571.452942 506.084808,571.674561 507.338318,571.046814 
	C513.258728,568.081909 519.385681,565.217041 525.817871,568.377197 
	C528.142761,569.519470 529.231567,573.177490 530.884460,575.687561 
	C528.974609,576.581909 527.138489,577.718811 525.141357,578.325928 
	C518.644409,580.300476 511.822418,581.456909 505.624817,584.099365 
	C498.359009,587.197144 495.253845,594.507874 496.779633,601.787415 
	C498.407349,609.553223 503.507233,614.044800 511.651337,614.951477 
	C517.895874,615.646790 523.511719,614.032532 528.647339,610.506714 
	C529.774963,609.732544 530.965393,609.049805 532.277832,608.230774 
	C534.096436,614.253418 535.644043,614.797668 543.682800,613.105591 
	C543.682800,599.902100 543.913513,586.796509 543.569763,573.705994 
	C543.431396,568.436890 540.991089,563.772278 536.564636,560.442383 
	C526.890381,553.164612 506.827454,555.862671 499.107483,565.610046 
	C500.249420,567.372192 501.419891,569.178406 502.923065,571.622681 
M563.179260,446.290833 
	C558.939453,444.535065 554.805969,441.629150 550.441162,441.225647 
	C532.963623,439.609894 521.756042,449.506073 520.485840,467.591980 
	C519.674133,479.148895 522.575317,489.851715 533.502686,495.872864 
	C544.492310,501.928345 555.608643,500.848206 566.042175,493.723694 
	C567.267944,492.886658 568.607971,492.216919 570.030762,491.390808 
	C567.113159,487.963898 565.217285,485.737030 563.370117,483.567474 
	C548.439453,492.751129 535.327148,488.882050 534.281372,474.670197 
	C536.098206,474.670197 537.870911,474.674896 539.643616,474.669373 
	C548.808655,474.640930 557.973694,474.623718 567.138611,474.569427 
	C569.296814,474.556610 571.678345,474.816376 571.804199,471.546814 
	C572.160767,462.283905 570.957642,453.542664 563.179260,446.290833 
M744.074219,488.034485 
	C736.674744,488.155579 733.638184,485.510010 733.474426,478.078979 
	C733.254211,468.088409 733.410156,458.089935 733.338806,448.095337 
	C733.325256,446.193481 733.005493,444.293854 732.801086,442.116882 
	C729.276733,442.116882 726.261475,441.850159 723.338684,442.253235 
	C722.229797,442.406158 720.481445,444.091766 720.469910,445.095459 
	C720.323914,457.746918 719.743347,470.453949 720.689026,483.040466 
	C721.643738,495.746582 730.181274,501.621307 742.618286,498.951935 
	C747.459595,497.912842 751.947937,495.229187 756.578979,493.302155 
	C758.308533,499.207001 759.656921,499.747711 768.156860,497.699554 
	C768.156860,479.313538 768.156860,460.920776 768.156860,442.067474 
	C765.052307,442.067474 762.394470,442.268341 759.779358,442.020020 
	C755.929321,441.654419 754.975525,443.325928 755.063599,446.945221 
	C755.282227,455.935547 755.138123,464.935089 755.110840,473.930847 
	C755.083313,482.988861 753.752625,484.780426 744.074219,488.034485 
M649.316711,557.078003 
	C645.671631,556.973022 641.868896,556.166687 638.421753,556.941833 
	C634.178650,557.895996 629.512695,559.317688 626.297119,562.036499 
	C617.908508,569.129517 620.439270,582.767334 630.634705,587.103882 
	C635.976257,589.375793 641.729980,590.705200 646.990601,593.126953 
	C648.974182,594.040161 651.590393,597.181030 651.242126,598.687744 
	C650.756958,600.786438 648.024353,602.988220 645.757263,603.870850 
	C643.643433,604.693787 640.699829,604.386108 638.441589,603.625610 
	C633.993896,602.127686 629.768005,599.971130 625.142761,597.952820 
	C623.317078,600.378845 621.268738,603.100830 619.101379,605.980957 
	C628.053833,614.530518 638.309204,616.625183 649.478882,614.289307 
	C659.074951,612.282532 664.390137,606.567932 664.872742,598.962646 
	C665.390625,590.801453 661.575195,585.888611 651.532532,582.098816 
	C647.181580,580.456787 642.590393,579.385559 638.386292,577.451050 
	C636.607605,576.632507 634.214172,574.000854 634.474731,572.651978 
	C634.847473,570.722473 637.118652,568.444336 639.092651,567.725830 
	C641.409180,566.882690 644.432678,567.001221 646.866943,567.694641 
	C650.435120,568.711060 653.752380,570.608276 657.450317,572.251892 
	C659.180237,569.938721 661.044312,567.446106 663.815735,563.740173 
	C658.865234,561.375183 654.499451,559.289490 649.316711,557.078003 
M453.931976,573.500000 
	C453.933502,566.171875 453.933380,558.843811 453.936890,551.515686 
	C453.942749,539.228455 453.943451,539.225647 441.415558,540.283691 
	C441.125183,540.308167 440.856567,540.590820 440.488800,540.804871 
	C440.488800,564.955566 440.488800,589.143616 440.488800,613.582397 
	C456.860687,613.582397 472.774750,613.582397 488.910034,613.582397 
	C488.910034,609.614624 488.910034,605.934509 488.910034,601.910034 
	C478.462646,601.910034 468.484833,601.793701 458.512360,601.974243 
	C455.099823,602.036011 453.783661,601.058899 453.886841,597.481445 
	C454.107574,589.826904 453.940277,582.161133 453.931976,573.500000 
M596.451843,447.500031 
	C596.451843,438.069092 596.451843,428.638184 596.451843,419.030334 
	C591.719788,419.030334 587.660278,419.030334 583.544678,419.030334 
	C583.357422,420.041840 583.135437,420.683014 583.135010,421.324310 
	C583.121338,442.281464 583.004028,463.239685 583.181702,484.195374 
	C583.282776,496.112030 590.187500,502.180939 605.008789,497.780975 
	C604.911987,495.704987 605.175842,493.452698 604.585876,491.452209 
	C604.182800,490.085358 602.700439,488.207886 601.506531,488.052765 
	C597.295105,487.505554 596.499146,484.985687 596.509033,481.432007 
	C596.539490,470.454803 596.475952,459.477386 596.451843,447.500031 
M678.408081,449.618591 
	C678.408081,465.578613 678.408081,481.538605 678.408081,498.022247 
	C681.707336,498.022247 684.354736,497.787750 686.943848,498.076385 
	C690.979431,498.526245 692.081665,496.907288 691.963745,493.000671 
	C691.692566,484.012604 691.728516,475.008636 691.896484,466.015900 
	C692.049377,457.832062 698.198669,452.402191 706.324707,452.929230 
	C707.907837,453.031921 709.487671,453.185486 712.343018,453.420380 
	C711.541931,448.885376 712.105164,443.232117 709.976135,441.908081 
	C705.861084,439.348938 700.638916,441.282776 696.550476,444.381073 
	C695.365051,445.279449 694.399841,446.463043 693.281921,447.457733 
	C692.517883,448.137543 691.664246,448.716644 690.705261,449.452332 
	C688.271118,441.147491 687.681030,440.836212 678.399109,442.923676 
	C678.399109,444.754181 678.399109,446.707184 678.408081,449.618591 
M377.991974,464.351410 
	C369.330475,461.801636 361.172821,465.337555 358.225372,472.919250 
	C355.102692,480.951660 358.866699,489.993195 366.688507,493.248444 
	C374.549805,496.520172 383.110046,493.547394 386.661194,486.312378 
	C390.671692,478.141479 387.367065,469.162292 377.991974,464.351410 
M357.196014,514.947388 
	C357.160950,515.945251 357.020874,516.952271 357.107788,517.939453 
	C357.696655,524.628601 360.683472,529.713135 367.220947,532.069641 
	C373.437836,534.310608 379.179779,533.108154 383.765991,528.386047 
	C388.473663,523.538879 389.600250,517.717957 387.048584,511.319489 
	C384.623993,505.239655 378.736664,501.375854 372.144104,501.576233 
	C364.848785,501.798004 360.143127,505.781036 357.196014,514.947388 
M388.475830,593.576904 
	C387.943146,591.322815 387.694427,588.951538 386.822296,586.837463 
	C384.586517,581.417847 378.360016,577.590576 372.486450,577.700684 
	C366.201263,577.818481 360.364502,581.851196 358.222992,587.658875 
	C355.930298,593.876526 357.109253,599.580017 361.556580,604.331421 
	C365.923157,608.996582 371.557526,610.139465 377.603424,608.370483 
	C384.496613,606.353699 387.774231,601.308228 388.475830,593.576904 
M347.703796,527.133362 
	C352.362000,519.494080 352.028381,512.077637 346.779449,506.584076 
	C341.806915,501.379822 333.798584,500.107391 327.583740,503.658661 
	C322.185333,506.743378 319.570557,511.582001 319.884247,517.700562 
	C320.215607,524.162659 323.198090,529.200928 329.462524,531.593628 
	C336.139404,534.143799 342.162933,532.881287 347.703796,527.133362 
M366.427887,455.185242 
	C376.017517,458.468781 384.979279,454.349365 387.643738,445.433014 
	C390.269165,436.647278 384.921234,427.561279 375.938690,425.546417 
	C368.805817,423.946442 361.402618,427.893707 358.507843,434.840302 
	C355.375885,442.356018 358.095520,449.928772 366.427887,455.185242 
M361.229156,544.746277 
	C360.198914,546.439331 358.878082,548.022888 358.191254,549.845337 
	C355.844421,556.072266 357.223785,561.830078 361.735504,566.447937 
	C366.310028,571.130005 372.128998,572.231934 378.329041,569.973267 
	C384.643921,567.672852 387.867157,562.797363 388.275848,556.293518 
	C388.675293,549.936707 385.949402,544.833862 380.233856,541.902527 
	C373.684204,538.543457 367.371582,539.214966 361.229156,544.746277 
M341.158264,569.851746 
	C350.197937,565.346069 353.495209,555.946106 348.886200,547.820312 
	C344.377380,539.871155 333.946686,537.441467 326.367493,542.574951 
	C320.211517,546.744507 318.111786,554.511414 321.216614,561.628113 
	C324.332642,568.770508 331.549866,571.968445 341.158264,569.851746 
M319.908936,441.190338 
	C320.675354,455.238098 336.096039,460.066284 344.710175,453.405426 
	C350.380005,449.021179 352.376801,441.669403 349.669037,435.070496 
	C346.985443,428.530518 340.091888,424.477264 333.268829,425.427490 
	C325.654358,426.487976 320.959259,431.734955 319.908936,441.190338 
M328.680908,492.977997 
	C336.921631,495.582031 343.209717,494.080566 347.503998,488.483337 
	C351.592438,483.154419 351.911285,475.785156 348.124298,470.329529 
	C344.354248,464.898285 339.087830,462.685028 332.571747,463.805115 
	C325.993713,464.935822 321.551941,469.362732 320.210541,475.848969 
	C318.804962,482.645569 321.408936,488.267639 328.680908,492.977997 
M332.144226,608.693848 
	C333.303375,608.782410 334.464203,608.965210 335.621399,608.944580 
	C344.832123,608.780518 351.474304,601.445496 350.831726,592.190613 
	C350.203461,583.141907 342.195587,576.785034 333.122314,578.132446 
	C326.021362,579.186890 320.669708,584.772339 319.999695,591.828430 
	C319.264191,599.573975 323.258698,605.428040 332.144226,608.693848 
M306.680695,580.676514 
	C300.763702,576.819824 294.687653,576.899109 288.921692,580.663330 
	C283.748779,584.040405 281.738251,589.227844 282.565552,595.333374 
	C283.452484,601.878906 287.205200,606.176331 293.463715,608.230103 
	C299.831726,610.319946 307.211975,607.530640 310.793518,601.756775 
	C314.912506,595.116577 313.595917,587.349426 306.680695,580.676514 
M313.069550,516.626648 
	C312.141571,508.148499 306.665588,502.393372 298.943298,501.780334 
	C291.347595,501.177368 284.573242,505.971619 282.880768,513.147888 
	C280.629944,522.691650 286.199463,531.024841 295.824738,532.514832 
	C304.773712,533.900146 312.130768,527.489136 313.069550,516.626648 
M282.306915,556.243713 
	C283.903595,564.604065 288.182648,569.286377 295.378204,570.547058 
	C301.610748,571.638977 307.949341,568.683167 311.054596,563.236877 
	C314.126648,557.848877 313.666687,550.739502 309.930695,545.865967 
	C306.180573,540.973999 299.654999,538.933350 293.380096,540.690308 
	C286.528503,542.608704 283.151215,547.098389 282.306915,556.243713 
M309.937592,469.684082 
	C303.232849,462.222656 293.564240,461.412109 287.049072,467.765259 
	C280.900757,473.760681 280.801666,483.712463 286.830048,489.765625 
	C292.083862,495.041046 301.039124,495.721436 306.970245,491.295746 
	C313.426086,486.478577 314.698853,478.600281 309.937592,469.684082 
M303.648376,426.704041 
	C293.829834,423.586121 285.140411,427.948853 282.947906,437.097198 
	C280.720245,446.392151 286.289215,454.688721 295.685211,456.072937 
	C302.844940,457.127686 309.279755,453.320068 311.917633,446.467865 
	C314.772827,439.051208 311.946106,431.765381 303.648376,426.704041 
M267.696411,530.297058 
	C274.134552,525.696594 276.500458,519.419250 274.357300,512.624146 
	C272.300140,506.101776 266.588470,501.943604 259.751373,501.990814 
	C252.601456,502.040222 247.045975,505.943634 245.165680,512.555054 
	C243.435959,518.637024 244.669373,524.228088 249.433777,528.471497 
	C254.661423,533.127563 260.718048,533.602844 267.696411,530.297058 
M256.487335,570.071045 
	C266.379700,571.412415 274.332703,565.654724 274.998047,556.669922 
	C275.682343,547.429688 268.922516,540.082764 259.758972,540.107361 
	C252.164154,540.127747 246.157013,544.989014 244.828842,552.189392 
	C243.344894,560.234314 247.262589,566.596741 256.487335,570.071045 
M273.748871,473.034912 
	C268.782227,461.355103 253.125015,460.958008 247.004013,470.644775 
	C243.230957,476.615814 244.031403,484.510315 248.863708,489.539978 
	C253.528290,494.395050 261.192627,495.500458 267.248657,492.191650 
	C273.727325,488.651917 276.200623,481.928467 273.748871,473.034912 
M252.731384,580.064514 
	C245.220978,584.744324 242.785767,591.566772 245.917236,599.154846 
	C248.746826,606.011414 256.315552,609.892883 263.377441,608.108887 
	C271.967865,605.938904 276.809875,597.701782 274.386963,589.379822 
	C271.681488,580.087463 263.498260,576.322632 252.731384,580.064514 
M232.522003,528.038147 
	C238.241943,521.083496 238.557602,513.224304 233.358337,507.215698 
	C228.721313,501.856934 220.354263,500.428955 214.235657,503.952209 
	C206.706726,508.287598 204.687881,517.833069 209.636002,525.700378 
	C214.196854,532.951843 223.968185,534.186279 232.522003,528.038147 
M273.384613,434.329468 
	C267.022919,423.470917 252.892395,422.650909 246.931335,432.794342 
	C243.415390,438.777161 244.469101,446.824615 249.397964,451.632233 
	C254.095779,456.214478 261.657959,457.057709 267.386261,453.638062 
	C273.775482,449.823853 276.080658,443.039276 273.384613,434.329468 
M224.788788,540.572510 
	C215.330688,539.536987 208.418823,544.213745 207.120209,552.527588 
	C205.886368,560.426758 211.050079,567.965942 218.871735,569.685181 
	C226.522598,571.367004 234.081253,566.819580 236.282455,559.210632 
	C238.594879,551.217163 234.157913,543.566711 224.788788,540.572510 
M236.581863,476.098602 
	C234.403809,468.737091 230.124695,464.791290 223.613556,464.140320 
	C217.317764,463.510925 211.780289,466.307953 208.966873,471.538544 
	C205.937653,477.170380 206.666199,483.917267 210.828400,488.777496 
	C214.708466,493.308289 221.819336,494.912231 227.745148,492.593292 
	C233.807861,490.220703 236.932846,484.758331 236.581863,476.098602 
M177.236053,529.394287 
	C182.774109,532.286682 188.171173,532.008240 193.083511,528.170166 
	C197.287872,524.885254 199.250793,520.386536 198.416885,515.013000 
	C197.383133,508.351807 192.470963,503.587952 186.315414,502.977448 
	C179.300537,502.281708 173.432892,505.597626 171.075317,511.589935 
	C168.527222,518.066528 170.493622,524.295715 177.236053,529.394287 
M220.138809,579.871521 
	C219.180313,580.131470 218.191360,580.311584 217.268158,580.663940 
	C209.765564,583.527832 206.489914,591.253296 209.648315,598.567627 
	C212.757690,605.768372 220.810501,608.684082 227.947693,605.193481 
	C233.545792,602.455566 236.393723,596.546204 235.146164,590.257019 
	C233.851151,583.728577 228.901581,580.081299 220.138809,579.871521 
M213.408295,450.117371 
	C218.493179,453.794373 223.833832,454.504395 229.138779,450.851898 
	C233.306656,447.982269 235.051636,443.756744 234.237946,438.700134 
	C233.369110,433.300842 229.441376,429.346100 224.155273,428.300018 
	C219.040192,427.287842 213.647446,429.465240 211.106308,433.568817 
	C207.985046,438.609192 208.585159,444.108521 213.408295,450.117371 
M178.190933,544.410400 
	C172.874069,548.451050 171.045593,553.297791 172.824600,558.634827 
	C174.577148,563.892517 179.485382,567.346191 184.998215,567.200928 
	C190.514496,567.055542 194.813370,563.764587 196.366745,558.371399 
	C197.684540,553.796143 196.494583,549.690552 193.219910,546.431885 
	C189.113739,542.345764 184.145599,541.986572 178.190933,544.410400 
M174.726028,484.707581 
	C180.685562,492.174927 191.531876,491.371552 195.030914,483.203613 
	C197.132599,478.297546 195.600372,472.651123 191.293152,469.429535 
	C187.099197,466.292664 181.561447,466.291412 177.436310,469.426453 
	C172.814331,472.939087 171.763641,477.907257 174.726028,484.707581 
M149.965744,525.436157 
	C154.531174,523.505615 156.576904,519.995178 155.976776,515.152954 
	C155.467789,511.046173 153.277084,508.018738 149.118729,506.881927 
	C145.043228,505.767731 141.514999,506.857605 138.895920,510.199738 
	C136.151428,513.701782 135.962524,517.597534 138.146835,521.380188 
	C140.634644,525.688416 144.581802,526.812256 149.965744,525.436157 
M104.962112,523.370789 
	C110.994644,520.963074 113.005196,515.647522 109.434357,511.368225 
	C107.009605,508.462341 103.459007,507.284607 100.558243,509.340240 
	C98.396935,510.871826 96.412262,514.310852 96.430206,516.885925 
	C96.460014,521.163391 99.712868,523.535095 104.962112,523.370789 
M179.285446,593.168579 
	C181.327408,594.692993 183.198593,596.876343 185.482269,597.468262 
	C186.651093,597.771118 189.540817,595.440430 189.875259,593.911255 
	C190.266876,592.120605 189.283783,589.330078 187.906860,587.993164 
	C184.755630,584.933533 180.692566,587.158203 179.285446,593.168579 
M143.844635,558.614807 
	C146.879379,559.958679 149.825958,559.582520 150.710205,556.285828 
	C151.134064,554.705688 149.680176,551.906250 148.215027,550.783264 
	C147.216064,550.017517 143.452240,550.754517 143.157288,551.599243 
	C142.478104,553.544434 143.160751,555.965149 143.844635,558.614807 
M143.277740,475.458801 
	C141.090149,478.241302 141.299240,480.938354 144.546555,482.316132 
	C145.912064,482.895508 148.416992,482.105896 149.708023,481.070679 
	C150.536804,480.406189 150.674850,477.120209 150.118591,476.810150 
	C148.266602,475.777679 145.961136,475.558685 143.277740,475.458801 
z"/>
<path fill="#91BC45" opacity="1.000000" stroke="none" 
	d="
M498.154968,498.049194 
	C494.244507,498.550873 493.978607,496.487579 494.053528,493.822418 
	C494.409088,481.177368 494.676788,468.529785 494.954315,455.882629 
	C495.006744,453.492340 494.961823,451.099915 494.165039,448.532318 
	C491.409607,455.390259 488.670410,462.254761 485.893707,469.104095 
	C483.642792,474.656372 481.211273,480.140045 479.127747,485.753571 
	C478.081604,488.572052 476.798462,490.100220 473.454803,490.103271 
	C470.221680,490.106232 468.736938,488.869446 467.625153,485.995911 
	C463.481903,475.287384 459.134705,464.657623 454.848419,454.004639 
	C454.204254,452.403595 453.476776,450.836090 452.219238,447.946594 
	C452.219238,465.369843 452.219238,481.228271 452.219238,497.534790 
	C448.458771,497.534790 444.594055,497.534790 440.162292,497.534790 
	C440.162292,473.437225 440.162292,449.398804 440.162292,424.544281 
	C444.307404,424.544281 448.442291,424.246613 452.485474,424.724426 
	C453.708923,424.869049 455.077393,426.995300 455.701508,428.495880 
	C460.876923,440.939056 465.888031,453.450531 470.964081,465.935211 
	C471.645203,467.610443 472.411133,469.251221 473.496918,471.726807 
	C474.400879,469.902466 475.021149,468.842407 475.470581,467.714294 
	C480.521362,455.036133 485.685150,442.399963 490.492920,429.629883 
	C491.944611,425.774048 493.836792,423.873810 498.116669,424.435120 
	C500.851166,424.793732 503.670959,424.502289 506.694946,424.502289 
	C506.694946,449.237183 506.694946,473.310425 506.694946,498.048615 
	C503.831543,498.048615 501.227936,498.048615 498.154968,498.049194 
z"/>
<path fill="#92BE47" opacity="1.000000" stroke="none" 
	d="
M832.584595,446.633270 
	C837.193237,444.576813 841.435486,441.646454 845.928650,441.190918 
	C856.585510,440.110504 863.248169,445.820953 864.996582,456.463318 
	C865.612793,460.214050 865.647888,464.080475 865.708435,467.897888 
	C865.821838,475.055267 865.758240,482.215424 865.772278,489.374420 
	C865.790283,498.516541 865.790161,498.343018 856.665344,498.434692 
	C852.997803,498.471527 852.191956,497.066559 852.229919,493.737427 
	C852.345520,483.584229 852.273560,473.426270 852.089783,463.273529 
	C852.011475,458.946930 850.890076,454.915466 846.209656,453.222107 
	C842.154663,451.755005 836.639893,453.485901 833.849731,457.582214 
	C832.549927,459.490570 831.859985,462.160828 831.802979,464.507812 
	C831.584534,473.492340 831.735657,482.485901 831.747803,491.476074 
	C831.750427,493.431580 831.748230,495.387085 831.748230,497.756226 
	C827.143494,497.756226 823.099304,497.756226 818.357910,497.756226 
	C818.357910,487.872040 818.368896,478.255188 818.350037,468.638428 
	C818.345459,466.308899 818.380981,463.966217 818.157654,461.652802 
	C817.551758,455.375824 814.575745,452.508331 809.053101,452.682678 
	C803.290955,452.864594 798.029236,457.441345 797.969421,462.725403 
	C797.848816,473.378998 797.964294,484.035217 797.956543,494.690338 
	C797.955872,495.667511 797.769531,496.644531 797.631226,497.993896 
	C793.583862,497.993896 789.654846,497.993896 785.117554,497.993896 
	C785.117554,479.611969 785.117554,461.131989 785.117554,442.682098 
	C793.296265,441.118408 793.795349,441.323456 796.528381,446.574280 
	C802.346252,444.659058 807.867798,442.094421 813.655640,441.133759 
	C820.221497,440.043945 825.626831,443.149200 829.417969,449.450226 
	C830.520813,448.479218 831.426514,447.681763 832.584595,446.633270 
z"/>
<path fill="#91BD44" opacity="1.000000" stroke="none" 
	d="
M648.421631,494.397095 
	C632.778564,504.793915 616.998474,499.021942 612.880615,480.984924 
	C611.378845,474.406799 611.576050,467.065002 612.677979,460.347168 
	C614.918030,446.690460 629.476868,434.464050 648.802368,445.431580 
	C648.802368,436.566467 648.802368,428.088989 648.802368,419.266846 
	C653.658203,419.266846 657.737732,419.266846 662.313721,419.266846 
	C662.432617,420.702423 662.653687,422.129211 662.653748,423.556000 
	C662.655090,446.864319 662.678711,470.173004 662.500977,493.480103 
	C662.488342,495.129364 660.776245,498.234924 660.145142,498.161591 
	C657.033630,497.799835 652.472961,501.031250 651.060059,495.209564 
	C650.936951,494.702393 649.523682,494.508331 648.421631,494.397095 
M640.888489,452.447174 
	C638.449097,452.658417 635.758972,452.281067 633.618164,453.193146 
	C627.593567,455.759888 625.392822,461.157440 625.047668,467.249969 
	C624.631714,474.594116 624.216492,482.259827 631.715515,486.802490 
	C639.549072,491.547729 649.021179,486.129425 649.026611,477.155762 
	C649.029663,472.176575 649.027588,467.197418 649.018127,462.218231 
	C649.004883,455.240601 648.477783,454.560272 640.888489,452.447174 
z"/>
<path fill="#90BC45" opacity="1.000000" stroke="none" 
	d="
M610.868896,579.395020 
	C611.618042,588.635315 611.137695,597.205261 606.071594,604.859619 
	C598.906555,615.685547 584.649597,618.284363 574.099976,610.729248 
	C573.320618,610.171143 572.549133,609.602173 571.374329,608.747498 
	C569.998230,616.123535 564.818665,613.315552 560.107666,613.656372 
	C559.927551,611.177673 559.628296,608.925293 559.621155,606.671997 
	C559.551697,584.841553 559.657654,563.009399 559.396912,541.181580 
	C559.340698,536.469421 560.519470,534.360229 565.469238,535.041809 
	C567.718506,535.351562 570.045837,535.094421 572.980713,535.094421 
	C572.980713,544.299438 572.980713,553.000732 572.980713,560.837280 
	C578.667175,559.240356 583.873779,556.815369 589.207947,556.491821 
	C598.684937,555.916931 605.941589,562.003662 609.036011,571.671997 
	C609.794800,574.042847 610.237122,576.515015 610.868896,579.395020 
M573.045776,594.227295 
	C573.507751,596.231201 573.304688,598.936768 574.548584,600.115601 
	C579.513184,604.820374 591.649231,606.014099 595.732300,596.681274 
	C599.006531,589.197266 598.827637,581.432617 595.708435,573.937439 
	C593.578064,568.818420 587.798157,566.582642 581.802612,567.973633 
	C576.359924,569.236267 573.102478,573.324036 573.097961,578.862183 
	C573.094116,583.672791 573.065979,588.483337 573.045776,594.227295 
z"/>
<path fill="#90BC45" opacity="1.000000" stroke="none" 
	d="
M502.756714,571.303650 
	C501.419891,569.178406 500.249420,567.372192 499.107483,565.610046 
	C506.827454,555.862671 526.890381,553.164612 536.564636,560.442383 
	C540.991089,563.772278 543.431396,568.436890 543.569763,573.705994 
	C543.913513,586.796509 543.682800,599.902100 543.682800,613.105591 
	C535.644043,614.797668 534.096436,614.253418 532.277832,608.230774 
	C530.965393,609.049805 529.774963,609.732544 528.647339,610.506714 
	C523.511719,614.032532 517.895874,615.646790 511.651337,614.951477 
	C503.507233,614.044800 498.407349,609.553223 496.779633,601.787415 
	C495.253845,594.507874 498.359009,587.197144 505.624817,584.099365 
	C511.822418,581.456909 518.644409,580.300476 525.141357,578.325928 
	C527.138489,577.718811 528.974609,576.581909 530.884460,575.687561 
	C529.231567,573.177490 528.142761,569.519470 525.817871,568.377197 
	C519.385681,565.217041 513.258728,568.081909 507.338318,571.046814 
	C506.084808,571.674561 504.405945,571.452942 502.756714,571.303650 
M510.623779,593.274597 
	C507.513123,600.044128 511.200806,605.880005 518.454956,604.646729 
	C530.751343,602.556396 532.831543,599.070251 529.919556,585.341736 
	C523.521851,587.836670 517.307861,590.260010 510.623779,593.274597 
z"/>
<path fill="#91BC45" opacity="1.000000" stroke="none" 
	d="
M563.442749,446.531311 
	C570.957642,453.542664 572.160767,462.283905 571.804199,471.546814 
	C571.678345,474.816376 569.296814,474.556610 567.138611,474.569427 
	C557.973694,474.623718 548.808655,474.640930 539.643616,474.669373 
	C537.870911,474.674896 536.098206,474.670197 534.281372,474.670197 
	C535.327148,488.882050 548.439453,492.751129 563.370117,483.567474 
	C565.217285,485.737030 567.113159,487.963898 570.030762,491.390808 
	C568.607971,492.216919 567.267944,492.886658 566.042175,493.723694 
	C555.608643,500.848206 544.492310,501.928345 533.502686,495.872864 
	C522.575317,489.851715 519.674133,479.148895 520.485840,467.591980 
	C521.756042,449.506073 532.963623,439.609894 550.441162,441.225647 
	C554.805969,441.629150 558.939453,444.535065 563.442749,446.531311 
M558.604492,459.134033 
	C555.187500,452.405273 550.536743,450.166748 543.684753,451.952698 
	C537.992126,453.436523 534.290955,458.632233 534.522888,465.222260 
	C542.762329,465.222260 551.015503,465.222260 559.597961,465.222260 
	C559.294983,463.072937 559.068359,461.465454 558.604492,459.134033 
z"/>
<path fill="#92BD46" opacity="1.000000" stroke="none" 
	d="
M744.474609,487.956635 
	C753.752625,484.780426 755.083313,482.988861 755.110840,473.930847 
	C755.138123,464.935089 755.282227,455.935547 755.063599,446.945221 
	C754.975525,443.325928 755.929321,441.654419 759.779358,442.020020 
	C762.394470,442.268341 765.052307,442.067474 768.156860,442.067474 
	C768.156860,460.920776 768.156860,479.313538 768.156860,497.699554 
	C759.656921,499.747711 758.308533,499.207001 756.578979,493.302155 
	C751.947937,495.229187 747.459595,497.912842 742.618286,498.951935 
	C730.181274,501.621307 721.643738,495.746582 720.689026,483.040466 
	C719.743347,470.453949 720.323914,457.746918 720.469910,445.095459 
	C720.481445,444.091766 722.229797,442.406158 723.338684,442.253235 
	C726.261475,441.850159 729.276733,442.116882 732.801086,442.116882 
	C733.005493,444.293854 733.325256,446.193481 733.338806,448.095337 
	C733.410156,458.089935 733.254211,468.088409 733.474426,478.078979 
	C733.638184,485.510010 736.674744,488.155579 744.474609,487.956635 
z"/>
<path fill="#93BE48" opacity="1.000000" stroke="none" 
	d="
M649.725159,557.140869 
	C654.499451,559.289490 658.865234,561.375183 663.815735,563.740173 
	C661.044312,567.446106 659.180237,569.938721 657.450317,572.251892 
	C653.752380,570.608276 650.435120,568.711060 646.866943,567.694641 
	C644.432678,567.001221 641.409180,566.882690 639.092651,567.725830 
	C637.118652,568.444336 634.847473,570.722473 634.474731,572.651978 
	C634.214172,574.000854 636.607605,576.632507 638.386292,577.451050 
	C642.590393,579.385559 647.181580,580.456787 651.532532,582.098816 
	C661.575195,585.888611 665.390625,590.801453 664.872742,598.962646 
	C664.390137,606.567932 659.074951,612.282532 649.478882,614.289307 
	C638.309204,616.625183 628.053833,614.530518 619.101379,605.980957 
	C621.268738,603.100830 623.317078,600.378845 625.142761,597.952820 
	C629.768005,599.971130 633.993896,602.127686 638.441589,603.625610 
	C640.699829,604.386108 643.643433,604.693787 645.757263,603.870850 
	C648.024353,602.988220 650.756958,600.786438 651.242126,598.687744 
	C651.590393,597.181030 648.974182,594.040161 646.990601,593.126953 
	C641.729980,590.705200 635.976257,589.375793 630.634705,587.103882 
	C620.439270,582.767334 617.908508,569.129517 626.297119,562.036499 
	C629.512695,559.317688 634.178650,557.895996 638.421753,556.941833 
	C641.868896,556.166687 645.671631,556.973022 649.725159,557.140869 
z"/>
<path fill="#93BB4A" opacity="1.000000" stroke="none" 
	d="
M453.931946,574.000000 
	C453.940277,582.161133 454.107574,589.826904 453.886841,597.481445 
	C453.783661,601.058899 455.099823,602.036011 458.512360,601.974243 
	C468.484833,601.793701 478.462646,601.910034 488.910034,601.910034 
	C488.910034,605.934509 488.910034,609.614624 488.910034,613.582397 
	C472.774750,613.582397 456.860687,613.582397 440.488800,613.582397 
	C440.488800,589.143616 440.488800,564.955566 440.488800,540.804871 
	C440.856567,540.590820 441.125183,540.308167 441.415558,540.283691 
	C453.943451,539.225647 453.942749,539.228455 453.936890,551.515686 
	C453.933380,558.843811 453.933502,566.171875 453.931946,574.000000 
z"/>
<path fill="#91BC45" opacity="1.000000" stroke="none" 
	d="
M596.450439,448.000031 
	C596.475952,459.477386 596.539490,470.454803 596.509033,481.432007 
	C596.499146,484.985687 597.295105,487.505554 601.506531,488.052765 
	C602.700439,488.207886 604.182800,490.085358 604.585876,491.452209 
	C605.175842,493.452698 604.911987,495.704987 605.008789,497.780975 
	C590.187500,502.180939 583.282776,496.112030 583.181702,484.195374 
	C583.004028,463.239685 583.121338,442.281464 583.135010,421.324310 
	C583.135437,420.683014 583.357422,420.041840 583.544678,419.030334 
	C587.660278,419.030334 591.719788,419.030334 596.451843,419.030334 
	C596.451843,428.638184 596.451843,438.069092 596.450439,448.000031 
z"/>
<path fill="#90BC45" opacity="1.000000" stroke="none" 
	d="
M678.403564,449.139374 
	C678.399109,446.707184 678.399109,444.754181 678.399109,442.923676 
	C687.681030,440.836212 688.271118,441.147491 690.705261,449.452332 
	C691.664246,448.716644 692.517883,448.137543 693.281921,447.457733 
	C694.399841,446.463043 695.365051,445.279449 696.550476,444.381073 
	C700.638916,441.282776 705.861084,439.348938 709.976135,441.908081 
	C712.105164,443.232117 711.541931,448.885376 712.343018,453.420380 
	C709.487671,453.185486 707.907837,453.031921 706.324707,452.929230 
	C698.198669,452.402191 692.049377,457.832062 691.896484,466.015900 
	C691.728516,475.008636 691.692566,484.012604 691.963745,493.000671 
	C692.081665,496.907288 690.979431,498.526245 686.943848,498.076385 
	C684.354736,497.787750 681.707336,498.022247 678.408081,498.022247 
	C678.408081,481.538605 678.408081,465.578613 678.403564,449.139374 
z"/>
<path fill="#ED7527" opacity="1.000000" stroke="none" 
	d="
M378.343567,464.509399 
	C387.367065,469.162292 390.671692,478.141479 386.661194,486.312378 
	C383.110046,493.547394 374.549805,496.520172 366.688507,493.248444 
	C358.866699,489.993195 355.102692,480.951660 358.225372,472.919250 
	C361.172821,465.337555 369.330475,461.801636 378.343567,464.509399 
z"/>
<path fill="#EC7426" opacity="1.000000" stroke="none" 
	d="
M357.255310,514.537964 
	C360.143127,505.781036 364.848785,501.798004 372.144104,501.576233 
	C378.736664,501.375854 384.623993,505.239655 387.048584,511.319489 
	C389.600250,517.717957 388.473663,523.538879 383.765991,528.386047 
	C379.179779,533.108154 373.437836,534.310608 367.220947,532.069641 
	C360.683472,529.713135 357.696655,524.628601 357.107788,517.939453 
	C357.020874,516.952271 357.160950,515.945251 357.255310,514.537964 
z"/>
<path fill="#EC7426" opacity="1.000000" stroke="none" 
	d="
M388.473022,593.972656 
	C387.774231,601.308228 384.496613,606.353699 377.603424,608.370483 
	C371.557526,610.139465 365.923157,608.996582 361.556580,604.331421 
	C357.109253,599.580017 355.930298,593.876526 358.222992,587.658875 
	C360.364502,581.851196 366.201263,577.818481 372.486450,577.700684 
	C378.360016,577.590576 384.586517,581.417847 386.822296,586.837463 
	C387.694427,588.951538 387.943146,591.322815 388.473022,593.972656 
z"/>
<path fill="#ED7527" opacity="1.000000" stroke="none" 
	d="
M347.466797,527.410400 
	C342.162933,532.881287 336.139404,534.143799 329.462524,531.593628 
	C323.198090,529.200928 320.215607,524.162659 319.884247,517.700562 
	C319.570557,511.582001 322.185333,506.743378 327.583740,503.658661 
	C333.798584,500.107391 341.806915,501.379822 346.779449,506.584076 
	C352.028381,512.077637 352.362000,519.494080 347.466797,527.410400 
z"/>
<path fill="#ED7527" opacity="1.000000" stroke="none" 
	d="
M366.074432,455.055115 
	C358.095520,449.928772 355.375885,442.356018 358.507843,434.840302 
	C361.402618,427.893707 368.805817,423.946442 375.938690,425.546417 
	C384.921234,427.561279 390.269165,436.647278 387.643738,445.433014 
	C384.979279,454.349365 376.017517,458.468781 366.074432,455.055115 
z"/>
<path fill="#EC7527" opacity="1.000000" stroke="none" 
	d="
M361.484070,544.486328 
	C367.371582,539.214966 373.684204,538.543457 380.233856,541.902527 
	C385.949402,544.833862 388.675293,549.936707 388.275848,556.293518 
	C387.867157,562.797363 384.643921,567.672852 378.329041,569.973267 
	C372.128998,572.231934 366.310028,571.130005 361.735504,566.447937 
	C357.223785,561.830078 355.844421,556.072266 358.191254,549.845337 
	C358.878082,548.022888 360.198914,546.439331 361.484070,544.486328 
z"/>
<path fill="#EC7527" opacity="1.000000" stroke="none" 
	d="
M340.785828,569.992920 
	C331.549866,571.968445 324.332642,568.770508 321.216614,561.628113 
	C318.111786,554.511414 320.211517,546.744507 326.367493,542.574951 
	C333.946686,537.441467 344.377380,539.871155 348.886200,547.820312 
	C353.495209,555.946106 350.197937,565.346069 340.785828,569.992920 
z"/>
<path fill="#ED7527" opacity="1.000000" stroke="none" 
	d="
M319.874573,440.812500 
	C320.959259,431.734955 325.654358,426.487976 333.268829,425.427490 
	C340.091888,424.477264 346.985443,428.530518 349.669037,435.070496 
	C352.376801,441.669403 350.380005,449.021179 344.710175,453.405426 
	C336.096039,460.066284 320.675354,455.238098 319.874573,440.812500 
z"/>
<path fill="#EC7527" opacity="1.000000" stroke="none" 
	d="
M328.340027,492.821411 
	C321.408936,488.267639 318.804962,482.645569 320.210541,475.848969 
	C321.551941,469.362732 325.993713,464.935822 332.571747,463.805115 
	C339.087830,462.685028 344.354248,464.898285 348.124298,470.329529 
	C351.911285,475.785156 351.592438,483.154419 347.503998,488.483337 
	C343.209717,494.080566 336.921631,495.582031 328.340027,492.821411 
z"/>
<path fill="#EC7527" opacity="1.000000" stroke="none" 
	d="
M331.748566,608.580322 
	C323.258698,605.428040 319.264191,599.573975 319.999695,591.828430 
	C320.669708,584.772339 326.021362,579.186890 333.122314,578.132446 
	C342.195587,576.785034 350.203461,583.141907 350.831726,592.190613 
	C351.474304,601.445496 344.832123,608.780518 335.621399,608.944580 
	C334.464203,608.965210 333.303375,608.782410 331.748566,608.580322 
z"/>
<path fill="#EC7426" opacity="1.000000" stroke="none" 
	d="
M306.986633,580.889404 
	C313.595917,587.349426 314.912506,595.116577 310.793518,601.756775 
	C307.211975,607.530640 299.831726,610.319946 293.463715,608.230103 
	C287.205200,606.176331 283.452484,601.878906 282.565552,595.333374 
	C281.738251,589.227844 283.748779,584.040405 288.921692,580.663330 
	C294.687653,576.899109 300.763702,576.819824 306.986633,580.889404 
z"/>
<path fill="#EC7426" opacity="1.000000" stroke="none" 
	d="
M313.068970,517.057617 
	C312.130768,527.489136 304.773712,533.900146 295.824738,532.514832 
	C286.199463,531.024841 280.629944,522.691650 282.880768,513.147888 
	C284.573242,505.971619 291.347595,501.177368 298.943298,501.780334 
	C306.665588,502.393372 312.141571,508.148499 313.068970,517.057617 
z"/>
<path fill="#ED7527" opacity="1.000000" stroke="none" 
	d="
M282.301392,555.834656 
	C283.151215,547.098389 286.528503,542.608704 293.380096,540.690308 
	C299.654999,538.933350 306.180573,540.973999 309.930695,545.865967 
	C313.666687,550.739502 314.126648,557.848877 311.054596,563.236877 
	C307.949341,568.683167 301.610748,571.638977 295.378204,570.547058 
	C288.182648,569.286377 283.903595,564.604065 282.301392,555.834656 
z"/>
<path fill="#EC7426" opacity="1.000000" stroke="none" 
	d="
M310.150696,469.987061 
	C314.698853,478.600281 313.426086,486.478577 306.970245,491.295746 
	C301.039124,495.721436 292.083862,495.041046 286.830048,489.765625 
	C280.801666,483.712463 280.900757,473.760681 287.049072,467.765259 
	C293.564240,461.412109 303.232849,462.222656 310.150696,469.987061 
z"/>
<path fill="#EC7426" opacity="1.000000" stroke="none" 
	d="
M304.003296,426.843811 
	C311.946106,431.765381 314.772827,439.051208 311.917633,446.467865 
	C309.279755,453.320068 302.844940,457.127686 295.685211,456.072937 
	C286.289215,454.688721 280.720245,446.392151 282.947906,437.097198 
	C285.140411,427.948853 293.829834,423.586121 304.003296,426.843811 
z"/>
<path fill="#EC7426" opacity="1.000000" stroke="none" 
	d="
M267.373230,530.487793 
	C260.718048,533.602844 254.661423,533.127563 249.433777,528.471497 
	C244.669373,524.228088 243.435959,518.637024 245.165680,512.555054 
	C247.045975,505.943634 252.601456,502.040222 259.751373,501.990814 
	C266.588470,501.943604 272.300140,506.101776 274.357300,512.624146 
	C276.500458,519.419250 274.134552,525.696594 267.373230,530.487793 
z"/>
<path fill="#EC7527" opacity="1.000000" stroke="none" 
	d="
M256.109070,569.982727 
	C247.262589,566.596741 243.344894,560.234314 244.828842,552.189392 
	C246.157013,544.989014 252.164154,540.127747 259.758972,540.107361 
	C268.922516,540.082764 275.682343,547.429688 274.998047,556.669922 
	C274.332703,565.654724 266.379700,571.412415 256.109070,569.982727 
z"/>
<path fill="#EC7426" opacity="1.000000" stroke="none" 
	d="
M273.886475,473.404022 
	C276.200623,481.928467 273.727325,488.651917 267.248657,492.191650 
	C261.192627,495.500458 253.528290,494.395050 248.863708,489.539978 
	C244.031403,484.510315 243.230957,476.615814 247.004013,470.644775 
	C253.125015,460.958008 268.782227,461.355103 273.886475,473.404022 
z"/>
<path fill="#EC7426" opacity="1.000000" stroke="none" 
	d="
M253.074158,579.898315 
	C263.498260,576.322632 271.681488,580.087463 274.386963,589.379822 
	C276.809875,597.701782 271.967865,605.938904 263.377441,608.108887 
	C256.315552,609.892883 248.746826,606.011414 245.917236,599.154846 
	C242.785767,591.566772 245.220978,584.744324 253.074158,579.898315 
z"/>
<path fill="#ED7527" opacity="1.000000" stroke="none" 
	d="
M232.252792,528.280884 
	C223.968185,534.186279 214.196854,532.951843 209.636002,525.700378 
	C204.687881,517.833069 206.706726,508.287598 214.235657,503.952209 
	C220.354263,500.428955 228.721313,501.856934 233.358337,507.215698 
	C238.557602,513.224304 238.241943,521.083496 232.252792,528.280884 
z"/>
<path fill="#EC7426" opacity="1.000000" stroke="none" 
	d="
M273.545135,434.684235 
	C276.080658,443.039276 273.775482,449.823853 267.386261,453.638062 
	C261.657959,457.057709 254.095779,456.214478 249.397964,451.632233 
	C244.469101,446.824615 243.415390,438.777161 246.931335,432.794342 
	C252.892395,422.650909 267.022919,423.470917 273.545135,434.684235 
z"/>
<path fill="#EC7426" opacity="1.000000" stroke="none" 
	d="
M225.182861,540.661987 
	C234.157913,543.566711 238.594879,551.217163 236.282455,559.210632 
	C234.081253,566.819580 226.522598,571.367004 218.871735,569.685181 
	C211.050079,567.965942 205.886368,560.426758 207.120209,552.527588 
	C208.418823,544.213745 215.330688,539.536987 225.182861,540.661987 
z"/>
<path fill="#EC7426" opacity="1.000000" stroke="none" 
	d="
M236.650269,476.503235 
	C236.932846,484.758331 233.807861,490.220703 227.745148,492.593292 
	C221.819336,494.912231 214.708466,493.308289 210.828400,488.777496 
	C206.666199,483.917267 205.937653,477.170380 208.966873,471.538544 
	C211.780289,466.307953 217.317764,463.510925 223.613556,464.140320 
	C230.124695,464.791290 234.403809,468.737091 236.650269,476.503235 
z"/>
<path fill="#EC7426" opacity="1.000000" stroke="none" 
	d="
M176.910248,529.218018 
	C170.493622,524.295715 168.527222,518.066528 171.075317,511.589935 
	C173.432892,505.597626 179.300537,502.281708 186.315414,502.977448 
	C192.470963,503.587952 197.383133,508.351807 198.416885,515.013000 
	C199.250793,520.386536 197.287872,524.885254 193.083511,528.170166 
	C188.171173,532.008240 182.774109,532.286682 176.910248,529.218018 
z"/>
<path fill="#EA7528" opacity="1.000000" stroke="none" 
	d="
M220.511627,579.809570 
	C228.901581,580.081299 233.851151,583.728577 235.146164,590.257019 
	C236.393723,596.546204 233.545792,602.455566 227.947693,605.193481 
	C220.810501,608.684082 212.757690,605.768372 209.648315,598.567627 
	C206.489914,591.253296 209.765564,583.527832 217.268158,580.663940 
	C218.191360,580.311584 219.180313,580.131470 220.511627,579.809570 
z"/>
<path fill="#EA7528" opacity="1.000000" stroke="none" 
	d="
M213.133606,449.873291 
	C208.585159,444.108521 207.985046,438.609192 211.106308,433.568817 
	C213.647446,429.465240 219.040192,427.287842 224.155273,428.300018 
	C229.441376,429.346100 233.369110,433.300842 234.237946,438.700134 
	C235.051636,443.756744 233.306656,447.982269 229.138779,450.851898 
	C223.833832,454.504395 218.493179,453.794373 213.133606,449.873291 
z"/>
<path fill="#EC7426" opacity="1.000000" stroke="none" 
	d="
M178.542389,544.233643 
	C184.145599,541.986572 189.113739,542.345764 193.219910,546.431885 
	C196.494583,549.690552 197.684540,553.796143 196.366745,558.371399 
	C194.813370,563.764587 190.514496,567.055542 184.998215,567.200928 
	C179.485382,567.346191 174.577148,563.892517 172.824600,558.634827 
	C171.045593,553.297791 172.874069,548.451050 178.542389,544.233643 
z"/>
<path fill="#EA7528" opacity="1.000000" stroke="none" 
	d="
M174.532379,484.390381 
	C171.763641,477.907257 172.814331,472.939087 177.436310,469.426453 
	C181.561447,466.291412 187.099197,466.292664 191.293152,469.429535 
	C195.600372,472.651123 197.132599,478.297546 195.030914,483.203613 
	C191.531876,491.371552 180.685562,492.174927 174.532379,484.390381 
z"/>
<path fill="#EA7528" opacity="1.000000" stroke="none" 
	d="
M149.626282,525.560303 
	C144.581802,526.812256 140.634644,525.688416 138.146835,521.380188 
	C135.962524,517.597534 136.151428,513.701782 138.895920,510.199738 
	C141.514999,506.857605 145.043228,505.767731 149.118729,506.881927 
	C153.277084,508.018738 155.467789,511.046173 155.976776,515.152954 
	C156.576904,519.995178 154.531174,523.505615 149.626282,525.560303 
z"/>
<path fill="#EA7528" opacity="1.000000" stroke="none" 
	d="
M104.599930,523.435303 
	C99.712868,523.535095 96.460014,521.163391 96.430206,516.885925 
	C96.412262,514.310852 98.396935,510.871826 100.558243,509.340240 
	C103.459007,507.284607 107.009605,508.462341 109.434357,511.368225 
	C113.005196,515.647522 110.994644,520.963074 104.599930,523.435303 
z"/>
<path fill="#EA7528" opacity="1.000000" stroke="none" 
	d="
M179.247360,592.798462 
	C180.692566,587.158203 184.755630,584.933533 187.906860,587.993164 
	C189.283783,589.330078 190.266876,592.120605 189.875259,593.911255 
	C189.540817,595.440430 186.651093,597.771118 185.482269,597.468262 
	C183.198593,596.876343 181.327408,594.692993 179.247360,592.798462 
z"/>
<path fill="#EA7528" opacity="1.000000" stroke="none" 
	d="
M143.567719,558.403809 
	C143.160751,555.965149 142.478104,553.544434 143.157288,551.599243 
	C143.452240,550.754517 147.216064,550.017517 148.215027,550.783264 
	C149.680176,551.906250 151.134064,554.705688 150.710205,556.285828 
	C149.825958,559.582520 146.879379,559.958679 143.567719,558.403809 
z"/>
<path fill="#EA7528" opacity="1.000000" stroke="none" 
	d="
M143.553619,475.243347 
	C145.961136,475.558685 148.266602,475.777679 150.118591,476.810150 
	C150.674850,477.120209 150.536804,480.406189 149.708023,481.070679 
	C148.416992,482.105896 145.912064,482.895508 144.546555,482.316132 
	C141.299240,480.938354 141.090149,478.241302 143.553619,475.243347 
z"/>
<path fill="#FBFEF7" opacity="1.000000" stroke="none" 
	d="
M641.279663,452.555481 
	C648.477783,454.560272 649.004883,455.240601 649.018127,462.218231 
	C649.027588,467.197418 649.029663,472.176575 649.026611,477.155762 
	C649.021179,486.129425 639.549072,491.547729 631.715515,486.802490 
	C624.216492,482.259827 624.631714,474.594116 625.047668,467.249969 
	C625.392822,461.157440 627.593567,455.759888 633.618164,453.193146 
	C635.758972,452.281067 638.449097,452.658417 641.279663,452.555481 
z"/>
<path fill="#FBFEF7" opacity="1.000000" stroke="none" 
	d="
M573.047241,593.760620 
	C573.065979,588.483337 573.094116,583.672791 573.097961,578.862183 
	C573.102478,573.324036 576.359924,569.236267 581.802612,567.973633 
	C587.798157,566.582642 593.578064,568.818420 595.708435,573.937439 
	C598.827637,581.432617 599.006531,589.197266 595.732300,596.681274 
	C591.649231,606.014099 579.513184,604.820374 574.548584,600.115601 
	C573.304688,598.936768 573.507751,596.231201 573.047241,593.760620 
z"/>
<path fill="#F9FDF1" opacity="1.000000" stroke="none" 
	d="
M510.858826,592.978943 
	C517.307861,590.260010 523.521851,587.836670 529.919556,585.341736 
	C532.831543,599.070251 530.751343,602.556396 518.454956,604.646729 
	C511.200806,605.880005 507.513123,600.044128 510.858826,592.978943 
z"/>
<path fill="#F9FDF1" opacity="1.000000" stroke="none" 
	d="
M558.723145,459.496002 
	C559.068359,461.465454 559.294983,463.072937 559.597961,465.222260 
	C551.015503,465.222260 542.762329,465.222260 534.522888,465.222260 
	C534.290955,458.632233 537.992126,453.436523 543.684753,451.952698 
	C550.536743,450.166748 555.187500,452.405273 558.723145,459.496002 
z"/>
</svg>