<svg version="1.1" id="Layer_1" xmlns="http://www.w3.org/2000/svg" xmlns:xlink="http://www.w3.org/1999/xlink" x="0px" y="0px"
	 width="100%" viewBox="0 0 1024 1024" enable-background="new 0 0 1024 1024" xml:space="preserve">
<path fill="#FDFDFD" opacity="1.000000" stroke="none" 
	d="
M548.000000,1025.000000 
	C365.333344,1025.000000 183.166672,1025.000000 1.000000,1025.000000 
	C1.000000,683.666687 1.000000,342.333344 1.000000,1.000000 
	C342.333344,1.000000 683.666687,1.000000 1025.000000,1.000000 
	C1025.000000,342.333344 1025.000000,683.666687 1025.000000,1025.000000 
	C866.166687,1025.000000 707.333313,1025.000000 548.000000,1025.000000 
M496.210114,601.457520 
	C496.494293,601.628235 496.778503,601.798889 497.025604,601.981628 
	C497.025604,601.981628 497.044861,601.943481 497.009064,602.785278 
	C496.882904,605.090881 497.297729,606.210510 500.104034,607.265259 
	C505.074066,609.133118 509.539001,607.620483 514.183411,607.048218 
	C516.177063,606.802612 518.087952,605.885071 519.105347,605.565369 
	C519.105347,602.717896 518.475464,600.507141 519.223938,598.965576 
	C521.438904,594.403503 524.946045,593.622009 530.622192,596.307800 
	C530.755920,596.854431 530.889587,597.401001 530.988708,598.758057 
	C531.315247,603.484558 535.816040,607.650391 540.551575,608.049194 
	C544.284241,608.363464 547.974243,609.170410 551.687927,609.727112 
	C554.675537,610.174927 557.747986,610.836243 559.075012,606.876221 
	C559.550781,605.456299 560.189575,604.091003 560.818726,602.541138 
	C566.413696,608.941772 574.614807,610.002625 582.747314,606.763794 
	C583.487732,606.814087 584.228088,606.864380 585.459595,607.503662 
	C588.182739,608.021362 591.223389,609.315430 591.962769,604.948853 
	C591.962769,604.948853 591.868652,604.920898 592.332275,604.845093 
	C592.639648,604.719910 592.853455,604.502747 593.212402,603.881409 
	C593.212402,603.881409 593.595642,603.794678 594.357849,603.918945 
	C595.806946,604.485779 597.255981,605.052673 598.946411,605.713928 
	C599.909912,603.417236 600.772766,601.360352 601.879700,598.721680 
	C603.815613,600.339355 605.403992,601.671082 606.997253,602.997009 
	C610.370911,605.804504 613.381592,609.475281 617.251587,611.108154 
	C619.803650,612.184875 625.137085,611.443420 626.505859,609.550110 
	C629.300232,605.684875 631.119446,606.245605 633.890137,609.279602 
	C636.497314,606.031311 638.830505,603.124390 640.692078,600.804993 
	C637.148926,596.187683 641.121826,593.385010 641.465149,590.061584 
	C642.906738,592.422058 643.214539,594.944031 644.118896,597.229919 
	C644.552795,598.326599 646.114868,598.976929 647.143250,599.851562 
	C647.143250,599.851562 647.127869,599.846985 647.036499,600.728271 
	C647.114929,602.318115 647.193359,603.908020 647.300293,606.077332 
	C651.099670,606.365784 654.569824,606.629211 658.880493,606.821289 
	C660.566528,606.824951 662.252502,606.828552 664.315369,607.395325 
	C665.198914,606.902710 666.082458,606.410095 667.328186,605.454956 
	C667.888489,605.311401 668.448792,605.167847 669.466736,605.555298 
	C671.735352,605.034973 674.062988,604.687256 676.253113,603.937500 
	C677.893982,603.375854 679.357788,602.296631 680.900391,601.447815 
	C679.679382,600.289856 678.458313,599.131958 676.535156,597.308167 
	C678.369629,596.271606 680.502930,595.066162 683.048279,593.627930 
	C682.008118,592.514282 680.760193,591.630249 680.155090,590.423767 
	C679.266846,588.652832 678.118835,586.560852 678.344910,584.764709 
	C679.112366,578.667542 679.117676,578.501099 672.721375,579.279541 
	C672.721375,579.279541 672.522461,579.424133 672.773315,578.646179 
	C671.152649,577.787659 669.532043,576.929138 667.940979,576.060364 
	C667.940979,576.060364 667.916687,576.095520 667.891479,575.347046 
	C666.351501,574.137451 664.811584,572.927856 662.467468,571.086670 
	C664.373657,569.965576 666.068420,568.115112 667.691589,568.175964 
	C672.373718,568.351318 673.455505,566.066467 673.118286,561.605896 
	C673.361816,561.385376 673.605347,561.164795 674.579346,560.929993 
	C676.582031,560.767212 678.584778,560.604431 681.512451,560.366455 
	C676.848694,556.778320 678.301758,553.551697 681.364197,550.359070 
	C677.147278,547.902161 675.979004,544.684998 676.859131,540.239807 
	C677.731323,535.835205 676.035400,534.497131 671.461243,534.904541 
	C670.479736,534.992004 669.454712,534.589661 667.632080,534.269165 
	C670.627380,532.504944 672.811523,531.218567 675.356750,529.719421 
	C674.074951,528.505066 673.130554,527.610352 672.214783,526.742737 
	C681.077148,515.439392 680.428589,506.915466 670.219299,497.025299 
	C668.135498,495.006622 668.455566,490.566681 671.071167,488.361420 
	C676.090576,484.129578 678.732605,478.988861 678.041626,472.283478 
	C677.856567,470.487427 677.854492,468.570496 678.275452,466.831818 
	C680.045593,459.520935 679.573364,458.598633 672.506836,456.922180 
	C667.510193,455.736755 666.369080,453.798096 668.772278,450.376556 
	C669.881897,451.149353 670.993958,451.923859 671.528442,452.296082 
	C673.452332,449.341278 675.167419,446.707184 677.041504,443.828888 
	C677.199585,442.474762 677.189392,440.456543 677.695129,438.577179 
	C680.651306,427.591797 679.408264,423.973389 669.327698,419.348480 
	C665.796692,417.728485 661.422302,417.913269 657.419067,417.378143 
	C656.323059,417.231628 655.128723,417.696899 654.061707,417.478973 
	C649.744080,416.597076 645.983276,416.737305 645.051575,420.731415 
	C641.882996,419.744598 639.137939,418.622894 636.282715,418.075531 
	C633.435608,417.529694 630.207214,418.241089 627.618713,417.212036 
	C619.143860,413.842957 612.966614,419.031891 606.476990,422.557922 
	C604.922546,423.402466 604.557312,426.555023 603.805420,428.702240 
	C603.472229,429.653778 603.537903,430.744965 603.422485,431.772766 
	C602.860779,431.917664 602.299072,432.062561 601.737366,432.207458 
	C600.412292,428.748016 599.087280,425.288605 597.659180,421.559967 
	C597.174805,421.821808 596.080872,422.413208 594.446167,422.822693 
	C593.945374,422.261841 593.444641,421.700989 592.890503,420.412872 
	C590.457520,418.974548 588.018921,416.372162 585.593018,416.384003 
	C582.349487,416.399780 577.468445,414.624969 576.107361,420.170593 
	C576.107361,420.170593 576.148621,420.196350 575.423645,420.058990 
	C574.105408,419.523102 572.787231,418.987244 571.756042,418.568085 
	C569.402893,421.039673 567.165161,423.390076 564.711914,425.966858 
	C564.711914,427.719879 564.711914,430.081543 564.711914,432.443176 
	C564.219177,432.493378 563.726379,432.543579 563.233643,432.593781 
	C561.623413,427.715485 560.013184,422.837189 558.745361,418.996399 
	C556.643921,418.718750 554.074219,418.826385 551.850220,418.001801 
	C545.086487,415.494110 533.164612,417.674713 529.214722,423.111267 
	C526.723145,426.540741 525.309265,430.753174 523.591064,434.249908 
	C525.223145,435.827362 526.692383,437.247437 528.161621,438.667511 
	C519.520081,438.954041 519.644714,438.970734 520.671448,431.310181 
	C520.917908,429.471100 520.233032,427.415436 519.625366,425.575378 
	C518.734497,422.877747 517.527283,420.284668 516.882324,418.698456 
	C513.379028,418.396698 509.979156,418.056000 506.571472,417.836700 
	C505.406250,417.761719 504.088745,417.692108 503.072784,418.142883 
	C500.851990,419.128265 498.882416,420.716980 496.626709,421.579285 
	C490.951202,423.748962 489.607513,426.352692 490.540527,432.385376 
	C490.935181,434.937134 490.118317,437.673828 489.873108,440.328400 
	C489.788330,441.246521 489.430389,442.326111 489.772369,443.066254 
	C491.787964,447.428345 497.764404,449.231171 502.822083,446.867645 
	C503.876007,447.006256 504.929932,447.144867 506.138031,447.910858 
	C508.087952,447.231018 510.037872,446.551178 512.107727,445.638916 
	C512.107727,445.638916 512.367859,445.611847 513.226685,445.814880 
	C515.638367,445.317047 518.029724,444.643799 520.466309,444.360413 
	C524.649719,443.873932 528.662048,444.121429 530.654602,448.173370 
	C532.886353,448.173370 534.838806,448.173370 536.920471,448.916962 
	C535.888184,450.213013 535.064880,452.302307 533.780212,452.640869 
	C531.056946,453.358551 522.959534,460.230774 523.399475,462.826813 
	C524.334656,468.345032 524.673889,474.272186 530.318481,478.514313 
	C530.552917,479.339508 530.787354,480.164734 530.526123,481.364471 
	C531.380859,482.224121 532.235535,483.083771 533.020264,483.987244 
	C533.020264,483.987244 533.042664,483.907745 533.217163,484.408569 
	C533.506409,484.596436 533.795715,484.784302 534.540649,485.069092 
	C534.844116,485.216492 535.026550,485.456085 535.108582,486.511169 
	C536.985107,488.521027 538.693359,491.003113 542.757812,488.863464 
	C543.500854,488.968567 544.243835,489.073669 545.086182,489.873169 
	C545.728333,491.338348 546.370483,492.803528 546.478455,493.049957 
	C544.421509,494.745697 543.202332,495.750763 541.358276,497.011993 
	C540.911682,497.038879 540.465088,497.065765 539.534302,496.499359 
	C534.957275,495.402496 530.380310,494.305664 525.744507,493.194733 
	C524.234131,497.788422 522.178040,501.359161 516.412109,500.960938 
	C516.119751,500.819702 515.945129,500.589264 515.951111,499.482422 
	C515.533447,498.466644 515.059326,497.469727 514.711914,496.430481 
	C514.250549,495.050323 513.122192,493.061279 513.647888,492.362122 
	C514.639038,491.043976 516.562073,490.360046 518.193359,489.624542 
	C518.791809,489.354706 519.661316,489.686096 519.003845,489.635742 
	C519.918945,486.019623 520.919617,483.102203 521.331421,480.103912 
	C521.650024,477.784546 525.250977,475.228973 520.968689,472.263641 
	C520.965088,471.514832 520.961548,470.766022 521.508179,469.595032 
	C520.226074,465.126221 519.072693,460.614441 517.602661,456.208344 
	C516.953918,454.263855 515.662354,452.533813 514.441406,450.302002 
	C514.213257,450.403717 512.700684,450.759827 512.696167,451.134125 
	C512.674805,452.906952 513.065186,454.684753 513.339905,456.687317 
	C510.745697,456.462250 508.047241,455.608765 505.694000,456.179230 
	C502.686890,456.908264 499.958252,458.786041 497.029999,460.063812 
	C497.029999,460.063812 497.147461,460.123291 496.386353,460.038849 
	C495.464172,460.338379 494.417786,460.450409 493.638916,460.966309 
	C485.485626,466.366394 488.406067,474.904114 486.699951,482.887909 
	C489.285431,482.276062 490.874054,481.900116 492.371613,481.570038 
	C492.371613,481.570038 492.464844,481.611267 492.227509,482.322327 
	C492.882721,482.835083 493.537933,483.347839 494.200073,483.877899 
	C494.200073,483.877899 494.216064,483.837280 494.075928,484.584106 
	C493.176392,486.100220 492.195251,487.574554 491.393463,489.140717 
	C489.437134,492.962006 485.236847,495.735840 486.509521,501.124359 
	C486.853516,502.580719 484.906250,504.578247 483.614410,507.101379 
	C478.285278,497.480804 470.167542,493.839600 460.798523,496.200897 
	C459.623383,496.497101 458.926788,498.692047 458.000275,500.000214 
	C458.000275,500.000214 458.006165,500.008667 457.259674,499.966187 
	C455.839996,499.345215 454.420349,498.724243 452.308685,497.800629 
	C451.818207,500.003998 451.142426,501.817230 451.059967,503.657043 
	C450.871490,507.864532 451.618591,512.218506 450.782104,516.264099 
	C449.878082,520.636353 451.884949,521.486206 455.635590,522.098938 
	C455.895111,522.305908 456.034546,522.575073 455.742249,523.593750 
	C454.808807,530.253052 462.799316,525.035217 463.546631,529.457581 
	C464.368011,528.692017 465.189362,527.926392 466.794037,526.983887 
	C467.862000,526.985107 468.929962,526.986328 470.432281,527.531433 
	C476.418732,526.211365 482.700165,525.357239 485.228699,516.850342 
	C489.861145,522.837463 493.956665,527.957764 497.766693,533.282349 
	C498.222321,533.919067 497.124817,535.667175 496.450409,537.869385 
	C493.797699,535.071289 491.964630,533.137756 489.353394,530.383423 
	C488.850128,533.555725 487.414581,536.591370 488.340118,537.764893 
	C493.609772,544.446716 482.595093,548.614685 486.016266,554.787903 
	C486.048920,554.846985 484.892090,555.565247 484.432098,555.879150 
	C486.020233,557.584045 487.661407,558.856628 488.647644,560.518066 
	C490.162811,563.070679 492.023376,563.425842 494.348450,562.647705 
	C494.348450,562.647705 494.663452,562.522095 494.333313,563.244263 
	C494.035065,564.007080 493.635651,564.747986 493.464752,565.538330 
	C493.262360,566.474365 493.256989,567.453064 493.166229,568.413269 
	C494.157288,567.991760 495.160400,567.595886 496.134460,567.138184 
	C496.632477,566.904236 497.078461,566.559570 497.547974,566.264954 
	C498.016998,566.486389 498.486053,566.707886 498.955109,566.929321 
	C498.225586,569.132446 497.966522,571.685913 496.650818,573.452393 
	C494.899078,575.804138 491.541321,577.151245 490.295593,579.641357 
	C488.610138,583.010437 488.274658,587.054810 487.360016,590.809509 
	C487.702118,590.866089 488.044220,590.922668 488.386353,590.979248 
	C487.334045,591.983948 486.281738,592.988647 485.229431,593.993408 
	C486.536713,594.845093 487.757263,595.914368 489.178253,596.480774 
	C490.349518,596.947571 491.758179,596.818604 493.020508,596.967773 
	C493.020508,596.967773 493.036926,596.931030 493.110870,597.346558 
	C493.217529,597.621704 493.403198,597.824646 494.128204,598.349792 
	C494.430267,598.865417 494.732330,599.381104 495.193939,600.389893 
	C495.464844,600.592224 495.735748,600.794495 496.000000,601.000000 
	C496.000000,601.000000 496.003448,600.993408 496.210114,601.457520 
M479.543701,553.127563 
	C479.082397,550.393311 479.181061,547.396362 478.046448,544.977966 
	C475.462280,539.469971 468.789886,537.142456 462.714661,539.053711 
	C457.022858,540.844360 453.871185,546.244202 454.671722,552.833923 
	C455.419525,558.989502 460.495636,563.755737 466.697754,564.125916 
	C472.963257,564.499878 477.630646,560.762695 479.543701,553.127563 
M462.392120,484.024231 
	C468.667633,486.069977 473.564056,484.807343 476.604065,480.359497 
	C480.487335,474.677856 479.217163,466.683929 473.850494,463.029938 
	C468.000610,459.046967 460.685791,460.500397 456.876282,466.402832 
	C452.896545,472.568939 454.839447,479.491425 462.392120,484.024231 
M426.945801,501.173462 
	C422.088867,502.075531 418.550415,504.592346 417.759613,509.681732 
	C417.108002,513.875366 418.274475,517.594849 422.077820,520.104980 
	C425.944153,522.656738 429.875488,522.838867 433.781250,520.337769 
	C437.799377,517.764648 438.873169,513.771362 438.015900,509.424835 
	C436.934448,503.941681 433.059113,501.435272 426.945801,501.173462 
M377.078400,515.419373 
	C379.359955,519.317871 383.107239,520.759521 386.857544,519.002136 
	C389.289337,517.862610 392.084595,514.723450 392.265991,512.297058 
	C392.468140,509.592957 390.573242,505.656982 388.324738,504.161774 
	C386.274506,502.798523 382.045074,503.032501 379.639923,504.257904 
	C375.542938,506.345306 375.299713,510.570038 377.078400,515.419373 
M469.245178,583.683044 
	C466.842987,584.542725 463.680908,584.774780 462.284790,586.465271 
	C461.213928,587.761902 461.564301,591.549438 462.762939,593.033936 
	C463.970032,594.528870 467.078918,595.216064 469.212738,594.979370 
	C470.636475,594.821411 472.970428,592.318665 472.852448,591.056396 
	C472.622131,588.592407 470.958771,586.262329 469.245178,583.683044 
M422.781189,551.278870 
	C423.057251,554.747070 425.176727,556.783936 428.340240,555.883972 
	C430.158356,555.366760 432.591583,552.727051 432.548279,551.101379 
	C432.500610,549.311707 430.228180,546.617493 428.392517,546.055054 
	C425.294067,545.105713 423.109283,547.121277 422.781189,551.278870 
M425.519440,476.993958 
	C427.458313,476.722839 430.530762,477.064331 431.082397,476.043579 
	C432.014740,474.318329 432.210846,470.984192 431.112610,469.721497 
	C430.065002,468.516998 426.342224,468.139801 424.904266,469.085297 
	C421.878906,471.074554 422.390961,474.100586 425.519440,476.993958 
M344.333832,509.324219 
	C342.490875,509.005066 340.550079,508.226959 338.852295,508.588837 
	C338.156433,508.737152 337.215118,511.814056 337.765594,512.722351 
	C338.495148,513.926086 341.395233,515.290833 341.917633,514.854858 
	C343.251678,513.741577 343.784790,511.668610 344.333832,509.324219 
M525.564575,449.374664 
	C525.018738,451.013123 524.472961,452.651581 523.927185,454.290009 
	C527.300903,453.221039 529.591492,451.893616 525.564575,449.374664 
M683.232361,589.949402 
	C683.788574,589.650391 684.344788,589.351379 684.901062,589.052429 
	C684.632324,588.556335 684.363586,588.060242 684.094788,587.564209 
	C683.756165,588.144897 683.417542,588.725586 683.232361,589.949402 
M480.044250,531.352112 
	C480.555573,531.213135 481.066925,531.074158 481.578247,530.935120 
	C481.058960,530.419434 480.539703,529.903748 480.020386,529.388062 
	C479.884430,529.900574 479.748474,530.413086 480.044250,531.352112 
M481.600433,492.801147 
	C481.211517,492.796875 480.822571,492.792603 480.433655,492.788330 
	C480.432098,492.949707 480.419647,493.251312 480.430573,493.252167 
	C480.817535,493.282196 481.206665,493.284027 481.600433,492.801147 
z"/>
<path fill="#FCF6ED" opacity="1.000000" stroke="none" 
	d="
M647.166016,599.829407 
	C646.114868,598.976929 644.552795,598.326599 644.118896,597.229919 
	C643.214539,594.944031 642.906738,592.422058 641.465149,590.061584 
	C641.121826,593.385010 637.148926,596.187683 640.692078,600.804993 
	C638.830505,603.124390 636.497314,606.031311 633.890137,609.279602 
	C631.119446,606.245605 629.300232,605.684875 626.505859,609.550110 
	C625.137085,611.443420 619.803650,612.184875 617.251587,611.108154 
	C613.381592,609.475281 610.370911,605.804504 606.997253,602.997009 
	C605.403992,601.671082 603.815613,600.339355 601.879700,598.721680 
	C600.772766,601.360352 599.909912,603.417236 598.946411,605.713928 
	C597.255981,605.052673 595.806946,604.485779 594.135742,603.548584 
	C594.796814,602.189453 595.779724,601.271912 596.546448,600.199768 
	C600.394287,594.819275 600.496582,586.814331 596.849976,581.460754 
	C593.175598,576.066406 586.770874,573.603638 580.235901,575.072144 
	C574.300964,576.405701 569.450134,581.886902 568.411499,588.433411 
	C567.065125,596.918884 571.618347,603.103394 582.016663,606.913330 
	C574.614807,610.002625 566.413696,608.941772 560.818726,602.541138 
	C560.189575,604.091003 559.550781,605.456299 559.075012,606.876221 
	C557.747986,610.836243 554.675537,610.174927 551.687927,609.727112 
	C547.974243,609.170410 544.284241,608.363464 540.551575,608.049194 
	C535.816040,607.650391 531.315247,603.484558 531.274414,598.554993 
	C532.131165,599.167297 532.636963,600.038818 533.283569,600.789062 
	C537.814819,606.046936 544.871033,607.605896 551.417664,604.832703 
	C557.228455,602.371216 560.682312,596.362488 560.246338,589.473572 
	C559.822510,582.778015 554.846497,577.011353 548.094421,575.391052 
	C541.848999,573.892334 534.896545,576.363892 532.127869,582.539246 
	C530.353577,586.496460 530.762695,591.432617 530.193054,595.929932 
	C524.946045,593.622009 521.438904,594.403503 519.223938,598.965576 
	C518.475464,600.507141 519.105347,602.717896 519.105347,605.565369 
	C518.087952,605.885071 516.177063,606.802612 514.183411,607.048218 
	C509.539001,607.620483 505.074066,609.133118 500.104034,607.265259 
	C497.297729,606.210510 496.882904,605.090881 497.405457,602.438416 
	C499.173035,602.690369 500.498657,603.444397 501.922913,603.862244 
	C509.820587,606.179260 517.126831,601.920288 519.206177,593.863586 
	C521.149353,586.334595 516.614136,578.635925 509.212830,576.899536 
	C501.251251,575.031677 493.689575,579.611450 492.372711,587.620056 
	C491.880676,590.612610 492.790833,593.835632 493.061646,596.953613 
	C491.758179,596.818604 490.349518,596.947571 489.178253,596.480774 
	C487.757263,595.914368 486.536713,594.845093 485.229431,593.993408 
	C486.281738,592.988647 487.334045,591.983948 488.386353,590.979248 
	C488.044220,590.922668 487.702118,590.866089 487.360016,590.809509 
	C488.274658,587.054810 488.610138,583.010437 490.295593,579.641357 
	C491.541321,577.151245 494.899078,575.804138 496.650818,573.452393 
	C497.966522,571.685913 498.225586,569.132446 498.955109,566.929321 
	C498.486053,566.707886 498.016998,566.486389 497.547974,566.264954 
	C497.078461,566.559570 496.632477,566.904236 496.134460,567.138184 
	C495.160400,567.595886 494.157288,567.991760 493.166199,568.413269 
	C493.256989,567.453064 493.262360,566.474365 493.464752,565.538330 
	C493.635651,564.747986 494.035065,564.007080 494.808899,562.975525 
	C498.523285,564.137634 501.762085,565.568481 504.756592,567.279053 
	C503.349609,568.628052 501.611603,569.519714 501.209198,570.823669 
	C500.896759,571.836243 502.250977,573.363037 502.864380,574.661377 
	C505.582672,572.944580 508.300934,571.227783 511.520996,569.194031 
	C509.284210,568.104797 508.139648,567.547424 507.283386,566.781738 
	C508.531067,566.310608 509.507172,566.096985 510.447174,565.777222 
	C518.021667,563.200806 522.376343,555.189819 520.381775,547.536377 
	C518.336731,539.689392 510.755890,534.895752 502.877899,536.468140 
	C494.520264,538.136169 489.690247,544.604858 491.017792,553.163086 
	C491.508698,556.327820 493.302307,559.290405 494.501801,562.345215 
	C492.023376,563.425842 490.162811,563.070679 488.647644,560.518066 
	C487.661407,558.856628 486.020233,557.584045 484.432098,555.879150 
	C484.892090,555.565247 486.048920,554.846985 486.016266,554.787903 
	C482.595093,548.614685 493.609772,544.446716 488.340118,537.764893 
	C487.414581,536.591370 488.850128,533.555725 489.353394,530.383423 
	C491.964630,533.137756 493.797699,535.071289 496.450409,537.869385 
	C497.124817,535.667175 498.222321,533.919067 497.766693,533.282349 
	C493.956665,527.957764 489.861145,522.837463 485.228699,516.850342 
	C482.700165,525.357239 476.418732,526.211365 470.467102,527.028503 
	C479.487457,522.893250 483.370361,515.895020 480.873932,507.831787 
	C478.661774,500.686737 471.504883,496.385712 464.078186,497.914917 
	C461.999481,498.342957 460.028748,499.295410 458.008484,500.007263 
	C458.926788,498.692047 459.623383,496.497101 460.798523,496.200897 
	C470.167542,493.839600 478.285278,497.480804 483.614410,507.101379 
	C484.906250,504.578247 486.853516,502.580719 486.509521,501.124359 
	C485.236847,495.735840 489.437134,492.962006 491.393463,489.140717 
	C492.195251,487.574554 493.176392,486.100220 494.456116,484.360840 
	C506.228790,493.224274 518.109863,488.194275 521.173828,472.987183 
	C525.250977,475.228973 521.650024,477.784546 521.331421,480.103912 
	C520.919617,483.102203 519.918945,486.019623 519.003845,489.635742 
	C519.661316,489.686096 518.791809,489.354706 518.193359,489.624542 
	C516.562073,490.360046 514.639038,491.043976 513.647888,492.362122 
	C513.122192,493.061279 514.250549,495.050323 514.711914,496.430481 
	C515.059326,497.469727 515.533447,498.466644 515.559448,499.776611 
	C514.141418,499.521179 513.147644,498.896942 512.083740,498.433746 
	C503.641510,494.758514 494.607208,498.388611 491.509949,506.673096 
	C488.218048,515.478271 492.733704,524.717957 501.767914,527.195618 
	C509.570190,529.335327 515.253845,525.775513 519.917603,520.208496 
	C519.963257,522.576294 519.963257,524.568909 519.963257,526.793945 
	C519.225952,526.849304 518.190308,526.737183 517.288452,527.033142 
	C515.208740,527.715576 513.194031,528.596069 511.152954,529.396179 
	C512.165710,531.749573 512.605469,534.702576 514.310303,536.331787 
	C517.883911,539.746887 522.123291,542.465332 526.088928,545.470337 
	C530.432678,538.394897 530.432678,538.394897 524.819580,535.637512 
	C526.321899,533.900391 527.712708,532.292297 529.137512,530.644775 
	C535.816406,537.306824 535.973694,537.325867 541.922485,532.321167 
	C540.747620,531.808105 539.758240,531.378052 538.770569,530.944275 
	C536.316650,529.866516 532.023804,529.153320 531.723633,527.645874 
	C530.308105,520.536194 525.442017,519.913269 519.855103,519.458374 
	C522.385071,512.460693 520.989990,506.531494 516.847839,501.063110 
	C522.178040,501.359161 524.234131,497.788422 525.744507,493.194733 
	C530.380310,494.305664 534.957275,495.402496 539.555359,497.044647 
	C538.535706,498.112427 537.439758,498.548370 536.463013,499.171234 
	C529.481873,503.622955 527.334167,512.783997 531.468079,520.321472 
	C535.144165,527.024170 544.187134,529.922302 551.475830,526.733704 
	C558.603577,523.615540 562.131470,515.102661 559.328247,507.382782 
	C556.392456,499.297760 549.986084,496.674561 541.983154,496.755829 
	C543.202332,495.750763 544.421509,494.745697 546.478455,493.049957 
	C546.370483,492.803528 545.728333,491.338348 545.411865,489.411743 
	C557.499512,486.933746 561.814148,479.904114 559.544434,467.052887 
	C561.578491,468.953827 563.141663,469.477509 565.269470,467.397034 
	C566.477051,466.216309 568.418091,465.785736 570.002747,465.402100 
	C569.439880,467.530029 568.702942,469.239227 568.400513,471.022064 
	C567.015869,479.185455 572.700684,487.243866 580.812561,488.779663 
	C589.398987,490.405304 597.471741,484.945404 598.994446,476.482574 
	C600.588013,467.625885 595.522949,459.697540 587.084167,458.020691 
	C579.889099,456.590973 574.597351,459.989563 570.002563,464.596954 
	C570.720337,461.799896 571.140564,459.273529 572.264771,457.113586 
	C573.857056,454.054321 572.938782,450.545532 570.010254,448.656708 
	C567.789124,447.224152 564.158997,446.785065 564.736328,442.625214 
	C564.781799,442.297546 562.471375,441.218323 561.287048,441.265839 
	C560.137512,441.311951 559.028137,442.359772 557.955322,442.585144 
	C558.455933,441.131500 559.002441,440.090271 559.332336,438.984406 
	C561.228394,432.628479 559.644104,427.036285 554.874756,422.646515 
	C550.151062,418.298737 544.458130,417.648834 538.639160,420.266449 
	C532.793030,422.896271 529.959167,427.658875 529.676270,434.062531 
	C529.406128,440.179352 532.639587,444.363800 536.949097,448.044861 
	C536.898193,448.089722 536.791260,448.173370 536.791260,448.173370 
	C534.838806,448.173370 532.886353,448.173370 530.654602,448.173370 
	C528.662048,444.121429 524.649719,443.873932 520.466309,444.360413 
	C518.029724,444.643799 515.638367,445.317047 513.012085,445.437134 
	C513.631042,444.244629 514.528076,443.484711 515.287170,442.605713 
	C518.894470,438.428802 519.419250,431.707092 516.531799,427.230804 
	C513.388672,422.358215 507.140472,420.085205 501.685913,421.830017 
	C495.903442,423.679749 492.731567,428.515503 492.979767,434.857147 
	C493.220093,440.998322 497.011353,444.383759 502.023102,446.894714 
	C497.764404,449.231171 491.787964,447.428345 489.772369,443.066254 
	C489.430389,442.326111 489.788330,441.246521 489.873108,440.328400 
	C490.118317,437.673828 490.935181,434.937134 490.540527,432.385376 
	C489.607513,426.352692 490.951202,423.748962 496.626709,421.579285 
	C498.882416,420.716980 500.851990,419.128265 503.072784,418.142883 
	C504.088745,417.692108 505.406250,417.761719 506.571472,417.836700 
	C509.979156,418.056000 513.379028,418.396698 516.882324,418.698456 
	C517.527283,420.284668 518.734497,422.877747 519.625366,425.575378 
	C520.233032,427.415436 520.917908,429.471100 520.671448,431.310181 
	C519.644714,438.970734 519.520081,438.954041 528.161621,438.667511 
	C526.692383,437.247437 525.223145,435.827362 523.591064,434.249908 
	C525.309265,430.753174 526.723145,426.540741 529.214722,423.111267 
	C533.164612,417.674713 545.086487,415.494110 551.850220,418.001801 
	C554.074219,418.826385 556.643921,418.718750 558.745361,418.996399 
	C560.013184,422.837189 561.623413,427.715485 563.233643,432.593781 
	C563.726379,432.543579 564.219177,432.493378 564.711914,432.443176 
	C564.711914,430.081543 564.711914,427.719879 564.711914,425.966858 
	C567.165161,423.390076 569.402893,421.039673 571.756042,418.568085 
	C572.787231,418.987244 574.105408,419.523102 575.618774,420.413147 
	C574.911011,421.501892 573.940491,422.168060 573.116150,422.982147 
	C567.515442,428.512817 566.559387,436.687561 570.724548,443.093079 
	C574.701355,449.208923 582.509644,451.643585 589.701416,449.010101 
	C596.268005,446.605621 600.271545,439.701385 598.861938,432.032654 
	C598.284668,428.891998 596.320312,426.006317 594.986938,423.004639 
	C596.080872,422.413208 597.174805,421.821808 597.659180,421.559967 
	C599.087280,425.288605 600.412292,428.748016 601.737366,432.207458 
	C602.299072,432.062561 602.860779,431.917664 603.422485,431.772766 
	C603.537903,430.744965 603.472229,429.653778 603.805420,428.702240 
	C604.557312,426.555023 604.922546,423.402466 606.476990,422.557922 
	C612.966614,419.031891 619.143860,413.842957 627.618713,417.212036 
	C630.207214,418.241089 633.435608,417.529694 636.282715,418.075531 
	C639.137939,418.622894 641.882996,419.744598 645.051575,420.731415 
	C645.983276,416.737305 649.744080,416.597076 654.061707,417.478973 
	C655.128723,417.696899 656.323059,417.231628 657.419067,417.378143 
	C661.422302,417.913269 665.796692,417.728485 669.327698,419.348480 
	C679.408264,423.973389 680.651306,427.591797 677.695129,438.577179 
	C677.189392,440.456543 677.199585,442.474762 677.041504,443.828888 
	C675.167419,446.707184 673.452332,449.341278 671.528442,452.296082 
	C670.993958,451.923859 669.881897,451.149353 668.772278,450.376556 
	C666.369080,453.798096 667.510193,455.736755 672.506836,456.922180 
	C679.573364,458.598633 680.045593,459.520935 678.275452,466.831818 
	C677.854492,468.570496 677.856567,470.487427 678.041626,472.283478 
	C678.732605,478.988861 676.090576,484.129578 671.071167,488.361420 
	C668.455566,490.566681 668.135498,495.006622 670.219299,497.025299 
	C680.428589,506.915466 681.077148,515.439392 672.214783,526.742737 
	C673.130554,527.610352 674.074951,528.505066 675.356750,529.719421 
	C672.811523,531.218567 670.627380,532.504944 667.632080,534.269165 
	C669.454712,534.589661 670.479736,534.992004 671.461243,534.904541 
	C676.035400,534.497131 677.731323,535.835205 676.859131,540.239807 
	C675.979004,544.684998 677.147278,547.902161 681.364197,550.359070 
	C678.301758,553.551697 676.848694,556.778320 681.512451,560.366455 
	C678.584778,560.604431 676.582031,560.767212 674.282349,560.555237 
	C674.352905,559.435608 674.770569,558.710938 675.080078,557.942749 
	C677.929138,550.872192 675.734192,542.986084 669.779541,538.831543 
	C663.585999,534.510315 655.408081,534.898071 649.949341,539.771790 
	C644.588074,544.558472 643.228821,552.730835 646.678528,559.436523 
	C649.931641,565.760010 657.164246,569.058533 664.465271,566.895264 
	C667.526001,565.988403 670.190796,563.745605 673.035583,562.110107 
	C673.455505,566.066467 672.373718,568.351318 667.691589,568.175964 
	C666.068420,568.115112 664.373657,569.965576 662.467468,571.086670 
	C664.811584,572.927856 666.351501,574.137451 667.494934,575.674561 
	C653.969055,571.729858 643.067627,580.204407 645.102661,593.197876 
	C645.457031,595.460632 646.461670,597.621460 647.166016,599.829407 
M644.998718,476.037109 
	C647.223511,484.383209 651.933655,488.773071 659.117004,489.195221 
	C666.828552,489.648407 672.549805,486.333954 675.110535,479.929901 
	C677.584351,473.743164 676.098694,466.466583 671.448853,461.995514 
	C666.920532,457.641296 659.552063,456.234467 653.851318,458.927979 
	C647.026978,462.152435 644.342712,467.815308 644.998718,476.037109 
M645.802795,506.777191 
	C643.296753,515.646851 646.148804,523.359802 653.195557,526.769592 
	C660.513550,530.310608 669.153748,528.159363 673.588623,521.692200 
	C678.749146,514.166992 676.588928,504.045807 668.761597,499.076660 
	C660.827026,494.039429 651.428101,496.919067 645.802795,506.777191 
M624.760132,606.326416 
	C634.280090,603.937561 639.449829,596.457642 637.685486,587.625305 
	C635.972168,579.048523 628.428833,573.742493 619.606079,574.908142 
	C611.351135,575.998779 605.834900,583.700867 606.763062,592.840210 
	C607.627258,601.348938 614.596191,606.852356 624.760132,606.326416 
M659.603577,450.208344 
	C665.081848,450.319244 669.729614,448.530640 673.080505,444.059845 
	C677.353760,438.358459 677.233276,430.177643 672.901611,424.568115 
	C668.679993,419.101227 661.107117,417.163971 654.490173,419.858246 
	C647.817932,422.575073 644.220886,428.691345 644.881042,436.197144 
	C645.534607,443.627808 650.558716,448.689117 659.603577,450.208344 
M637.200012,477.453644 
	C639.015564,468.030762 634.450562,460.179047 625.973206,458.143799 
	C617.839905,456.191132 609.300354,461.050323 607.084106,468.892090 
	C604.688354,477.368591 609.037781,485.649048 617.311279,488.362701 
	C625.964539,491.200867 633.586365,487.290131 637.200012,477.453644 
M612.717896,500.078247 
	C611.499451,501.426544 610.042480,502.627869 609.104919,504.149261 
	C605.541504,509.931702 605.645264,515.898865 609.255066,521.547058 
	C612.734680,526.991455 618.102478,528.932617 624.369263,528.120911 
	C630.937439,527.270081 635.252686,523.552368 637.177979,517.164490 
	C639.080994,510.850403 637.132263,504.024231 631.962769,500.153442 
	C625.960876,495.659332 619.658936,495.834473 612.717896,500.078247 
M608.291870,544.188416 
	C607.811340,547.261963 606.762024,550.372437 606.958557,553.402039 
	C607.513916,561.962708 615.076843,567.828369 624.019836,567.119995 
	C632.284058,566.465515 638.319641,559.511780 637.896790,551.132080 
	C637.543152,544.123352 633.370361,538.700867 626.803101,536.715759 
	C619.533325,534.518250 613.605347,536.744080 608.291870,544.188416 
M573.366699,500.807770 
	C572.498962,501.811310 571.455139,502.711243 570.793213,503.835907 
	C567.600342,509.260681 567.177795,514.960999 570.343750,520.431335 
	C573.641541,526.129578 578.968994,528.536072 585.508789,528.046997 
	C591.772156,527.578491 596.009827,524.228943 598.326233,518.467651 
	C600.894592,512.079773 598.924866,504.542114 593.704712,500.377655 
	C587.826904,495.688507 580.868042,495.655975 573.366699,500.807770 
M622.426880,418.751617 
	C610.698425,419.404114 603.795715,429.172272 607.578369,439.763947 
	C610.231567,447.193176 617.672119,451.381073 625.466187,449.832184 
	C632.551697,448.424103 637.828186,441.786896 637.778931,434.344208 
	C637.724670,426.141724 632.047729,420.046478 622.426880,418.751617 
M573.387573,539.798889 
	C572.426331,540.938477 571.276367,541.967957 570.536316,543.236572 
	C567.204956,548.946777 567.546021,554.812012 570.917236,560.231384 
	C574.415894,565.855530 580.003235,567.922058 586.425781,566.953552 
	C592.708801,566.006042 596.979614,562.302185 598.758545,556.096741 
	C600.634216,549.554016 598.446655,542.832947 593.401733,539.130127 
	C587.586487,534.861938 580.575745,534.922974 573.387573,539.798889 
M560.270447,549.760925 
	C558.354675,539.771606 550.352783,534.183960 541.178711,536.429443 
	C532.385315,538.581726 527.522034,547.292419 530.148254,556.186096 
	C532.257935,563.330383 539.096008,567.748596 546.718994,566.892639 
	C554.884888,565.975647 559.889465,560.004333 560.270447,549.760925 
M524.310364,579.714844 
	C524.477234,577.665771 524.644104,575.616699 524.735718,574.492004 
	C526.906921,573.960266 528.870117,573.479492 530.833313,572.998718 
	C529.805786,571.138855 529.226929,568.539429 527.651001,567.583435 
	C524.932007,565.933960 518.731628,570.419678 519.200256,573.618774 
	C520.091370,579.702332 521.463318,585.715454 522.635620,591.757812 
	C523.180969,591.901489 523.726318,592.045105 524.271606,592.188782 
	C524.808167,590.537781 525.811523,588.874329 525.768005,587.238647 
	C525.708008,584.981750 524.858215,582.745789 524.310364,579.714844 
z"/>
<path fill="#E87226" opacity="1.000000" stroke="none" 
	d="
M647.154663,599.840454 
	C646.461670,597.621460 645.457031,595.460632 645.102661,593.197876 
	C643.067627,580.204407 653.969055,571.729858 667.507568,576.048828 
	C667.916687,576.095520 667.940979,576.060364 668.094910,576.344604 
	C669.673401,577.560669 671.097900,578.492371 672.522461,579.424133 
	C672.522461,579.424133 672.721375,579.279541 672.742737,579.702393 
	C678.777588,590.109314 677.800598,596.587708 669.009094,605.024292 
	C668.448792,605.167847 667.888489,605.311401 666.818542,605.670227 
	C665.518799,606.201111 664.728638,606.516663 663.938538,606.832153 
	C662.252502,606.828552 660.566528,606.824951 658.211304,606.618652 
	C654.070740,604.226379 650.599304,602.036682 647.127869,599.846985 
	C647.127869,599.846985 647.143250,599.851562 647.154663,599.840454 
z"/>
<path fill="#E87226" opacity="1.000000" stroke="none" 
	d="
M673.076904,561.858032 
	C670.190796,563.745605 667.526001,565.988403 664.465271,566.895264 
	C657.164246,569.058533 649.931641,565.760010 646.678528,559.436523 
	C643.228821,552.730835 644.588074,544.558472 649.949341,539.771790 
	C655.408081,534.898071 663.585999,534.510315 669.779541,538.831543 
	C675.734192,542.986084 677.929138,550.872192 675.080078,557.942749 
	C674.770569,558.710938 674.352905,559.435608 673.917114,560.562378 
	C673.605347,561.164795 673.361816,561.385376 673.076904,561.858032 
z"/>
<path fill="#E87226" opacity="1.000000" stroke="none" 
	d="
M582.381958,606.838562 
	C571.618347,603.103394 567.065125,596.918884 568.411499,588.433411 
	C569.450134,581.886902 574.300964,576.405701 580.235901,575.072144 
	C586.770874,573.603638 593.175598,576.066406 596.849976,581.460754 
	C600.496582,586.814331 600.394287,594.819275 596.546448,600.199768 
	C595.779724,601.271912 594.796814,602.189453 593.754639,603.486450 
	C593.595642,603.794678 593.212402,603.881409 592.848511,604.044983 
	C592.140564,604.325928 591.935242,604.563354 591.868652,604.920898 
	C591.868652,604.920898 591.962769,604.948853 591.565369,604.919189 
	C589.101501,605.564575 587.034973,606.239624 584.968506,606.914673 
	C584.228088,606.864380 583.487732,606.814087 582.381958,606.838562 
z"/>
<path fill="#E77225" opacity="1.000000" stroke="none" 
	d="
M594.716553,422.913666 
	C596.320312,426.006317 598.284668,428.891998 598.861938,432.032654 
	C600.271545,439.701385 596.268005,446.605621 589.701416,449.010101 
	C582.509644,451.643585 574.701355,449.208923 570.724548,443.093079 
	C566.559387,436.687561 567.515442,428.512817 573.116150,422.982147 
	C573.940491,422.168060 574.911011,421.501892 575.981262,420.481812 
	C576.148621,420.196350 576.107361,420.170593 576.523315,420.141113 
	C582.442749,417.830261 587.737610,418.795624 592.943848,421.140106 
	C593.444641,421.700989 593.945374,422.261841 594.716553,422.913666 
z"/>
<path fill="#E77225" opacity="1.000000" stroke="none" 
	d="
M541.670715,496.883911 
	C549.986084,496.674561 556.392456,499.297760 559.328247,507.382782 
	C562.131470,515.102661 558.603577,523.615540 551.475830,526.733704 
	C544.187134,529.922302 535.144165,527.024170 531.468079,520.321472 
	C527.334167,512.783997 529.481873,503.622955 536.463013,499.171234 
	C537.439758,498.548370 538.535706,498.112427 539.797485,497.341278 
	C540.465088,497.065765 540.911682,497.038879 541.670715,496.883911 
z"/>
<path fill="#E77225" opacity="1.000000" stroke="none" 
	d="
M530.407593,596.118896 
	C530.762695,591.432617 530.353577,586.496460 532.127869,582.539246 
	C534.896545,576.363892 541.848999,573.892334 548.094421,575.391052 
	C554.846497,577.011353 559.822510,582.778015 560.246338,589.473572 
	C560.682312,596.362488 557.228455,602.371216 551.417664,604.832703 
	C544.871033,607.605896 537.814819,606.046936 533.283569,600.789062 
	C532.636963,600.038818 532.131165,599.167297 531.291748,598.149780 
	C530.889587,597.401001 530.755920,596.854431 530.407593,596.118896 
z"/>
<path fill="#E77225" opacity="1.000000" stroke="none" 
	d="
M559.218384,466.986511 
	C561.814148,479.904114 557.499512,486.933746 545.362183,489.064545 
	C544.243835,489.073669 543.500854,488.968567 542.141296,488.677032 
	C539.379150,487.589691 537.233582,486.688782 535.087952,485.787872 
	C535.026550,485.456085 534.844116,485.216492 534.235718,484.762146 
	C533.634766,484.272705 533.338684,484.090210 533.042664,483.907745 
	C533.042664,483.907745 533.020264,483.987244 533.005493,483.658722 
	C532.334412,482.550110 531.678101,481.770020 531.021790,480.989929 
	C530.787354,480.164734 530.552917,479.339508 530.142334,477.803406 
	C528.804871,470.400421 530.100220,464.570984 536.018860,460.495972 
	C541.529480,456.701843 547.261353,457.642609 553.093262,460.055603 
	C553.179016,460.180908 553.481995,460.161469 553.649353,460.422791 
	C554.188660,460.843933 554.560547,461.003754 554.929688,461.117920 
	C554.926819,461.072266 554.849915,461.121796 554.967529,461.426910 
	C556.374023,463.192657 557.662842,464.653290 558.957092,466.350800 
	C558.962524,466.587677 559.218384,466.986511 559.218384,466.986511 
z"/>
<path fill="#E87226" opacity="1.000000" stroke="none" 
	d="
M519.872009,519.833252 
	C515.253845,525.775513 509.570190,529.335327 501.767914,527.195618 
	C492.733704,524.717957 488.218048,515.478271 491.509949,506.673096 
	C494.607208,498.388611 503.641510,494.758514 512.083740,498.433746 
	C513.147644,498.896942 514.141418,499.521179 515.527954,500.170227 
	C515.945129,500.589264 516.119751,500.819702 516.630005,501.012024 
	C520.989990,506.531494 522.385071,512.460693 519.933350,519.503052 
	C520.002075,519.959351 519.872009,519.833252 519.872009,519.833252 
z"/>
<path fill="#E77225" opacity="1.000000" stroke="none" 
	d="
M521.071289,472.625427 
	C518.109863,488.194275 506.228790,493.224274 494.526184,483.987427 
	C494.216064,483.837280 494.200073,483.877899 494.140930,483.573853 
	C493.542816,482.716980 493.003845,482.164124 492.464844,481.611267 
	C492.464844,481.611267 492.371613,481.570038 492.371307,481.164276 
	C488.944611,472.718445 490.867401,465.916595 497.147461,460.123291 
	C497.147461,460.123291 497.029999,460.063812 497.455688,460.084778 
	C509.409576,456.032288 515.554810,458.671692 520.958008,470.017212 
	C520.961548,470.766022 520.965088,471.514832 521.071289,472.625427 
z"/>
<path fill="#E87226" opacity="1.000000" stroke="none" 
	d="
M458.004395,500.003723 
	C460.028748,499.295410 461.999481,498.342957 464.078186,497.914917 
	C471.504883,496.385712 478.661774,500.686737 480.873932,507.831787 
	C483.370361,515.895020 479.487457,522.893250 470.249908,526.756531 
	C468.929962,526.986328 467.862000,526.985107 466.054260,526.940552 
	C462.227600,525.566956 459.140747,524.236694 456.053894,522.906433 
	C456.034546,522.575073 455.895111,522.305908 455.345367,521.640198 
	C450.511200,513.353455 451.811462,506.339966 458.006165,500.008667 
	C458.006165,500.008667 458.000275,500.000214 458.004395,500.003723 
z"/>
<path fill="#E67129" opacity="1.000000" stroke="none" 
	d="
M493.041077,596.960693 
	C492.790833,593.835632 491.880676,590.612610 492.372711,587.620056 
	C493.689575,579.611450 501.251251,575.031677 509.212830,576.899536 
	C516.614136,578.635925 521.149353,586.334595 519.206177,593.863586 
	C517.126831,601.920288 509.820587,606.179260 501.922913,603.862244 
	C500.498657,603.444397 499.173035,602.690369 497.423370,602.017517 
	C497.044861,601.943481 497.025604,601.981628 496.963501,601.725708 
	C496.602051,601.310974 496.302765,601.152222 496.003448,600.993408 
	C496.003448,600.993408 496.000000,601.000000 495.941864,600.739746 
	C495.600616,600.285278 495.317505,600.091003 495.034393,599.896729 
	C494.732330,599.381104 494.430267,598.865417 493.915192,597.924805 
	C493.597382,597.173523 493.375641,596.983948 493.036926,596.931030 
	C493.036926,596.931030 493.020508,596.967773 493.041077,596.960693 
z"/>
<path fill="#E67129" opacity="1.000000" stroke="none" 
	d="
M479.484741,553.531128 
	C477.630646,560.762695 472.963257,564.499878 466.697754,564.125916 
	C460.495636,563.755737 455.419525,558.989502 454.671722,552.833923 
	C453.871185,546.244202 457.022858,540.844360 462.714661,539.053711 
	C468.789886,537.142456 475.462280,539.469971 478.046448,544.977966 
	C479.181061,547.396362 479.082397,550.393311 479.484741,553.531128 
z"/>
<path fill="#E67129" opacity="1.000000" stroke="none" 
	d="
M462.061218,483.861023 
	C454.839447,479.491425 452.896545,472.568939 456.876282,466.402832 
	C460.685791,460.500397 468.000610,459.046967 473.850494,463.029938 
	C479.217163,466.683929 480.487335,474.677856 476.604065,480.359497 
	C473.564056,484.807343 468.667633,486.069977 462.061218,483.861023 
z"/>
<path fill="#E87226" opacity="1.000000" stroke="none" 
	d="
M502.422607,446.881165 
	C497.011353,444.383759 493.220093,440.998322 492.979767,434.857147 
	C492.731567,428.515503 495.903442,423.679749 501.685913,421.830017 
	C507.140472,420.085205 513.388672,422.358215 516.531799,427.230804 
	C519.419250,431.707092 518.894470,438.428802 515.287170,442.605713 
	C514.528076,443.484711 513.631042,444.244629 512.582703,445.335632 
	C512.367859,445.611847 512.107727,445.638916 511.661499,445.773987 
	C509.471497,446.367188 507.727661,446.825348 505.983856,447.283478 
	C504.929932,447.144867 503.876007,447.006256 502.422607,446.881165 
z"/>
<path fill="#E67129" opacity="1.000000" stroke="none" 
	d="
M427.296814,501.125275 
	C433.059113,501.435272 436.934448,503.941681 438.015900,509.424835 
	C438.873169,513.771362 437.799377,517.764648 433.781250,520.337769 
	C429.875488,522.838867 425.944153,522.656738 422.077820,520.104980 
	C418.274475,517.594849 417.108002,513.875366 417.759613,509.681732 
	C418.550415,504.592346 422.088867,502.075531 427.296814,501.125275 
z"/>
<path fill="#FCF6ED" opacity="1.000000" stroke="none" 
	d="
M553.007507,459.930298 
	C547.261353,457.642609 541.529480,456.701843 536.018860,460.495972 
	C530.100220,464.570984 528.804871,470.400421 529.936279,477.549011 
	C524.673889,474.272186 524.334656,468.345032 523.399475,462.826813 
	C522.959534,460.230774 531.056946,453.358551 533.780212,452.640869 
	C535.064880,452.302307 535.888184,450.213013 536.855835,448.545166 
	C536.791260,448.173370 536.898193,448.089722 537.332031,448.087891 
	C542.868164,450.468109 547.896545,449.708130 552.898254,448.123566 
	C550.823425,452.341034 551.453674,456.140015 553.007507,459.930298 
z"/>
<path fill="#DC793A" opacity="1.000000" stroke="none" 
	d="
M376.942688,515.086792 
	C375.299713,510.570038 375.542938,506.345306 379.639923,504.257904 
	C382.045074,503.032501 386.274506,502.798523 388.324738,504.161774 
	C390.573242,505.656982 392.468140,509.592957 392.265991,512.297058 
	C392.084595,514.723450 389.289337,517.862610 386.857544,519.002136 
	C383.107239,520.759521 379.359955,519.317871 376.942688,515.086792 
z"/>
<path fill="#DC793A" opacity="1.000000" stroke="none" 
	d="
M469.566956,583.779907 
	C470.958771,586.262329 472.622131,588.592407 472.852448,591.056396 
	C472.970428,592.318665 470.636475,594.821411 469.212738,594.979370 
	C467.078918,595.216064 463.970032,594.528870 462.762939,593.033936 
	C461.564301,591.549438 461.213928,587.761902 462.284790,586.465271 
	C463.680908,584.774780 466.842987,584.542725 469.566956,583.779907 
z"/>
<path fill="#FCF6ED" opacity="1.000000" stroke="none" 
	d="
M669.237915,605.289795 
	C677.800598,596.587708 678.777588,590.109314 672.667908,579.799927 
	C679.117676,578.501099 679.112366,578.667542 678.344910,584.764709 
	C678.118835,586.560852 679.266846,588.652832 680.155090,590.423767 
	C680.760193,591.630249 682.008118,592.514282 683.048279,593.627930 
	C680.502930,595.066162 678.369629,596.271606 676.535156,597.308167 
	C678.458313,599.131958 679.679382,600.289856 680.900391,601.447815 
	C679.357788,602.296631 677.893982,603.375854 676.253113,603.937500 
	C674.062988,604.687256 671.735352,605.034973 669.237915,605.289795 
z"/>
<path fill="#DC793A" opacity="1.000000" stroke="none" 
	d="
M422.783203,550.928101 
	C423.109283,547.121277 425.294067,545.105713 428.392517,546.055054 
	C430.228180,546.617493 432.500610,549.311707 432.548279,551.101379 
	C432.591583,552.727051 430.158356,555.366760 428.340240,555.883972 
	C425.176727,556.783936 423.057251,554.747070 422.783203,550.928101 
z"/>
<path fill="#DC793A" opacity="1.000000" stroke="none" 
	d="
M425.240051,476.805176 
	C422.390961,474.100586 421.878906,471.074554 424.904266,469.085297 
	C426.342224,468.139801 430.065002,468.516998 431.112610,469.721497 
	C432.210846,470.984192 432.014740,474.318329 431.082397,476.043579 
	C430.530762,477.064331 427.458313,476.722839 425.240051,476.805176 
z"/>
<path fill="#FCF6ED" opacity="1.000000" stroke="none" 
	d="
M521.233093,469.806122 
	C515.554810,458.671692 509.409576,456.032288 497.495483,460.137207 
	C499.958252,458.786041 502.686890,456.908264 505.694000,456.179230 
	C508.047241,455.608765 510.745697,456.462250 513.339905,456.687317 
	C513.065186,454.684753 512.674805,452.906952 512.696167,451.134125 
	C512.700684,450.759827 514.213257,450.403717 514.441406,450.302002 
	C515.662354,452.533813 516.953918,454.263855 517.602661,456.208344 
	C519.072693,460.614441 520.226074,465.126221 521.233093,469.806122 
z"/>
<path fill="#FCF6ED" opacity="1.000000" stroke="none" 
	d="
M496.766907,460.081055 
	C490.867401,465.916595 488.944611,472.718445 492.416840,481.141357 
	C490.874054,481.900116 489.285431,482.276062 486.699951,482.887909 
	C488.406067,474.904114 485.485626,466.366394 493.638916,460.966309 
	C494.417786,460.450409 495.464172,460.338379 496.766907,460.081055 
z"/>
<path fill="#FCF6ED" opacity="1.000000" stroke="none" 
	d="
M457.632935,499.987427 
	C451.811462,506.339966 450.511200,513.353455 455.131104,521.548767 
	C451.884949,521.486206 449.878082,520.636353 450.782104,516.264099 
	C451.618591,512.218506 450.871490,507.864532 451.059967,503.657043 
	C451.142426,501.817230 451.818207,500.003998 452.308685,497.800629 
	C454.420349,498.724243 455.839996,499.345215 457.632935,499.987427 
z"/>
<path fill="#DC793A" opacity="1.000000" stroke="none" 
	d="
M344.486053,509.651886 
	C343.784790,511.668610 343.251678,513.741577 341.917633,514.854858 
	C341.395233,515.290833 338.495148,513.926086 337.765594,512.722351 
	C337.215118,511.814056 338.156433,508.737152 338.852295,508.588837 
	C340.550079,508.226959 342.490875,509.005066 344.486053,509.651886 
z"/>
<path fill="#FCF6ED" opacity="1.000000" stroke="none" 
	d="
M592.917175,420.776489 
	C587.737610,418.795624 582.442749,417.830261 576.531128,420.147552 
	C577.468445,414.624969 582.349487,416.399780 585.593018,416.384003 
	C588.018921,416.372162 590.457520,418.974548 592.917175,420.776489 
z"/>
<path fill="#FCF6ED" opacity="1.000000" stroke="none" 
	d="
M647.082153,600.287598 
	C650.599304,602.036682 654.070740,604.226379 657.791138,606.654419 
	C654.569824,606.629211 651.099670,606.365784 647.300293,606.077332 
	C647.193359,603.908020 647.114929,602.318115 647.082153,600.287598 
z"/>
<path fill="#FCF6ED" opacity="1.000000" stroke="none" 
	d="
M455.898071,523.250122 
	C459.140747,524.236694 462.227600,525.566956 465.662598,527.029053 
	C465.189362,527.926392 464.368011,528.692017 463.546631,529.457581 
	C462.799316,525.035217 454.808807,530.253052 455.898071,523.250122 
z"/>
<path fill="#FCF6ED" opacity="1.000000" stroke="none" 
	d="
M525.921570,449.353088 
	C529.591492,451.893616 527.300903,453.221039 523.927185,454.290009 
	C524.472961,452.651581 525.018738,451.013123 525.921570,449.353088 
z"/>
<path fill="#FCF6ED" opacity="1.000000" stroke="none" 
	d="
M585.214050,607.209167 
	C587.034973,606.239624 589.101501,605.564575 591.540894,604.876587 
	C591.223389,609.315430 588.182739,608.021362 585.214050,607.209167 
z"/>
<path fill="#FCF6ED" opacity="1.000000" stroke="none" 
	d="
M535.098267,486.149536 
	C537.233582,486.688782 539.379150,487.589691 541.767700,488.731049 
	C538.693359,491.003113 536.985107,488.521027 535.098267,486.149536 
z"/>
<path fill="#FCF6ED" opacity="1.000000" stroke="none" 
	d="
M506.060944,447.597168 
	C507.727661,446.825348 509.471497,446.367188 511.601562,445.890198 
	C510.037872,446.551178 508.087952,447.231018 506.060944,447.597168 
z"/>
<path fill="#FCF6ED" opacity="1.000000" stroke="none" 
	d="
M672.647888,579.035156 
	C671.097900,578.492371 669.673401,577.560669 668.080078,576.349731 
	C669.532043,576.929138 671.152649,577.787659 672.647888,579.035156 
z"/>
<path fill="#FCF6ED" opacity="1.000000" stroke="none" 
	d="
M683.155640,589.627808 
	C683.417542,588.725586 683.756165,588.144897 684.094788,587.564209 
	C684.363586,588.060242 684.632324,588.556335 684.901062,589.052368 
	C684.344788,589.351379 683.788574,589.650391 683.155640,589.627808 
z"/>
<path fill="#FCF6ED" opacity="1.000000" stroke="none" 
	d="
M530.773926,481.177185 
	C531.678101,481.770020 532.334412,482.550110 533.040527,483.636780 
	C532.235535,483.083771 531.380859,482.224121 530.773926,481.177185 
z"/>
<path fill="#FCF6ED" opacity="1.000000" stroke="none" 
	d="
M479.828369,531.138855 
	C479.748474,530.413086 479.884430,529.900574 480.020386,529.388062 
	C480.539703,529.903748 481.058960,530.419434 481.578247,530.935120 
	C481.066925,531.074158 480.555573,531.213135 479.828369,531.138855 
z"/>
<path fill="#FCF6ED" opacity="1.000000" stroke="none" 
	d="
M664.126953,607.113770 
	C664.728638,606.516663 665.518799,606.201111 666.637451,605.901489 
	C666.082458,606.410095 665.198914,606.902710 664.126953,607.113770 
z"/>
<path fill="#FCF6ED" opacity="1.000000" stroke="none" 
	d="
M481.597961,493.045471 
	C481.206665,493.284027 480.817535,493.282196 480.430573,493.252167 
	C480.419647,493.251312 480.432098,492.949707 480.433655,492.788330 
	C480.822571,492.792603 481.211517,492.796875 481.597961,493.045471 
z"/>
<path fill="#FCF6ED" opacity="1.000000" stroke="none" 
	d="
M492.346191,481.966797 
	C493.003845,482.164124 493.542816,482.716980 494.137512,483.565216 
	C493.537933,483.347839 492.882721,482.835083 492.346191,481.966797 
z"/>
<path fill="#FCF6ED" opacity="1.000000" stroke="none" 
	d="
M493.073914,597.138794 
	C493.375641,596.983948 493.597382,597.173523 493.684998,597.727661 
	C493.403198,597.824646 493.217529,597.621704 493.073914,597.138794 
z"/>
<path fill="#FCF6ED" opacity="1.000000" stroke="none" 
	d="
M495.114166,600.143311 
	C495.317505,600.091003 495.600616,600.285278 495.945190,600.738159 
	C495.735748,600.794495 495.464844,600.592224 495.114166,600.143311 
z"/>
<path fill="#FCF6ED" opacity="1.000000" stroke="none" 
	d="
M496.106781,601.225464 
	C496.302765,601.152222 496.602051,601.310974 496.982056,601.719666 
	C496.778503,601.798889 496.494293,601.628235 496.106781,601.225464 
z"/>
<path fill="#FCF6ED" opacity="1.000000" stroke="none" 
	d="
M592.100464,604.882996 
	C591.935242,604.563354 592.140564,604.325928 592.729126,604.201050 
	C592.853455,604.502747 592.639648,604.719910 592.100464,604.882996 
z"/>
<path fill="#FCF6ED" opacity="1.000000" stroke="none" 
	d="
M533.129883,484.158142 
	C533.338684,484.090210 533.634766,484.272705 534.007874,484.713684 
	C533.795715,484.784302 533.506409,484.596436 533.129883,484.158142 
z"/>
<path fill="#E87226" opacity="1.000000" stroke="none" 
	d="
M644.958740,475.612732 
	C644.342712,467.815308 647.026978,462.152435 653.851318,458.927979 
	C659.552063,456.234467 666.920532,457.641296 671.448853,461.995514 
	C676.098694,466.466583 677.584351,473.743164 675.110535,479.929901 
	C672.549805,486.333954 666.828552,489.648407 659.117004,489.195221 
	C651.933655,488.773071 647.223511,484.383209 644.958740,475.612732 
z"/>
<path fill="#E87226" opacity="1.000000" stroke="none" 
	d="
M645.938843,506.402283 
	C651.428101,496.919067 660.827026,494.039429 668.761597,499.076660 
	C676.588928,504.045807 678.749146,514.166992 673.588623,521.692200 
	C669.153748,528.159363 660.513550,530.310608 653.195557,526.769592 
	C646.148804,523.359802 643.296753,515.646851 645.938843,506.402283 
z"/>
<path fill="#E87226" opacity="1.000000" stroke="none" 
	d="
M624.371948,606.382935 
	C614.596191,606.852356 607.627258,601.348938 606.763062,592.840210 
	C605.834900,583.700867 611.351135,575.998779 619.606079,574.908142 
	C628.428833,573.742493 635.972168,579.048523 637.685486,587.625305 
	C639.449829,596.457642 634.280090,603.937561 624.371948,606.382935 
z"/>
<path fill="#E77225" opacity="1.000000" stroke="none" 
	d="
M659.174438,450.186218 
	C650.558716,448.689117 645.534607,443.627808 644.881042,436.197144 
	C644.220886,428.691345 647.817932,422.575073 654.490173,419.858246 
	C661.107117,417.163971 668.679993,419.101227 672.901611,424.568115 
	C677.233276,430.177643 677.353760,438.358459 673.080505,444.059845 
	C669.729614,448.530640 665.081848,450.319244 659.174438,450.186218 
z"/>
<path fill="#E87226" opacity="1.000000" stroke="none" 
	d="
M637.121948,477.845703 
	C633.586365,487.290131 625.964539,491.200867 617.311279,488.362701 
	C609.037781,485.649048 604.688354,477.368591 607.084106,468.892090 
	C609.300354,461.050323 617.839905,456.191132 625.973206,458.143799 
	C634.450562,460.179047 639.015564,468.030762 637.121948,477.845703 
z"/>
<path fill="#E87226" opacity="1.000000" stroke="none" 
	d="
M613.032288,499.868286 
	C619.658936,495.834473 625.960876,495.659332 631.962769,500.153442 
	C637.132263,504.024231 639.080994,510.850403 637.177979,517.164490 
	C635.252686,523.552368 630.937439,527.270081 624.369263,528.120911 
	C618.102478,528.932617 612.734680,526.991455 609.255066,521.547058 
	C605.645264,515.898865 605.541504,509.931702 609.104919,504.149261 
	C610.042480,502.627869 611.499451,501.426544 613.032288,499.868286 
z"/>
<path fill="#E87226" opacity="1.000000" stroke="none" 
	d="
M608.490662,543.852661 
	C613.605347,536.744080 619.533325,534.518250 626.803101,536.715759 
	C633.370361,538.700867 637.543152,544.123352 637.896790,551.132080 
	C638.319641,559.511780 632.284058,566.465515 624.019836,567.119995 
	C615.076843,567.828369 607.513916,561.962708 606.958557,553.402039 
	C606.762024,550.372437 607.811340,547.261963 608.490662,543.852661 
z"/>
<path fill="#E77225" opacity="1.000000" stroke="none" 
	d="
M573.637695,500.546448 
	C580.868042,495.655975 587.826904,495.688507 593.704712,500.377655 
	C598.924866,504.542114 600.894592,512.079773 598.326233,518.467651 
	C596.009827,524.228943 591.772156,527.578491 585.508789,528.046997 
	C578.968994,528.536072 573.641541,526.129578 570.343750,520.431335 
	C567.177795,514.960999 567.600342,509.260681 570.793213,503.835907 
	C571.455139,502.711243 572.498962,501.811310 573.637695,500.546448 
z"/>
<path fill="#E77225" opacity="1.000000" stroke="none" 
	d="
M622.856506,418.767517 
	C632.047729,420.046478 637.724670,426.141724 637.778931,434.344208 
	C637.828186,441.786896 632.551697,448.424103 625.466187,449.832184 
	C617.672119,451.381073 610.231567,447.193176 607.578369,439.763947 
	C603.795715,429.172272 610.698425,419.404114 622.856506,418.767517 
z"/>
<path fill="#E77225" opacity="1.000000" stroke="none" 
	d="
M570.019348,465.031250 
	C574.597351,459.989563 579.889099,456.590973 587.084167,458.020691 
	C595.522949,459.697540 600.588013,467.625885 598.994446,476.482574 
	C597.471741,484.945404 589.398987,490.405304 580.812561,488.779663 
	C572.700684,487.243866 567.015869,479.185455 568.400513,471.022064 
	C568.702942,469.239227 569.439880,467.530029 569.987427,465.394470 
	C569.998169,465.002014 570.019348,465.031250 570.019348,465.031250 
z"/>
<path fill="#E87226" opacity="1.000000" stroke="none" 
	d="
M573.669983,539.549194 
	C580.575745,534.922974 587.586487,534.861938 593.401733,539.130127 
	C598.446655,542.832947 600.634216,549.554016 598.758545,556.096741 
	C596.979614,562.302185 592.708801,566.006042 586.425781,566.953552 
	C580.003235,567.922058 574.415894,565.855530 570.917236,560.231384 
	C567.546021,554.812012 567.204956,548.946777 570.536316,543.236572 
	C571.276367,541.967957 572.426331,540.938477 573.669983,539.549194 
z"/>
<path fill="#E87226" opacity="1.000000" stroke="none" 
	d="
M560.309570,550.195435 
	C559.889465,560.004333 554.884888,565.975647 546.718994,566.892639 
	C539.096008,567.748596 532.257935,563.330383 530.148254,556.186096 
	C527.522034,547.292419 532.385315,538.581726 541.178711,536.429443 
	C550.352783,534.183960 558.354675,539.771606 560.309570,550.195435 
z"/>
<path fill="#E77225" opacity="1.000000" stroke="none" 
	d="
M552.896301,447.730499 
	C547.896545,449.708130 542.868164,450.468109 537.382935,448.043030 
	C532.639587,444.363800 529.406128,440.179352 529.676270,434.062531 
	C529.959167,427.658875 532.793030,422.896271 538.639160,420.266449 
	C544.458130,417.648834 550.151062,418.298737 554.874756,422.646515 
	C559.644104,427.036285 561.228394,432.628479 559.332336,438.984406 
	C559.002441,440.090271 558.455933,441.131500 557.684814,442.741333 
	C556.586609,444.252289 555.813049,445.224518 554.801514,446.225952 
	C554.240662,446.402893 554.064087,446.653717 553.795288,447.039062 
	C553.228333,447.182159 553.008179,447.402161 552.896301,447.730499 
z"/>
<path fill="#E77225" opacity="1.000000" stroke="none" 
	d="
M494.425110,562.496460 
	C493.302307,559.290405 491.508698,556.327820 491.017792,553.163086 
	C489.690247,544.604858 494.520264,538.136169 502.877899,536.468140 
	C510.755890,534.895752 518.336731,539.689392 520.381775,547.536377 
	C522.376343,555.189819 518.021667,563.200806 510.447174,565.777222 
	C509.507172,566.096985 508.531067,566.310608 506.954590,566.697327 
	C505.891937,566.880615 505.446381,566.939941 505.000854,566.999268 
	C501.762085,565.568481 498.523285,564.137634 494.973969,562.614441 
	C494.663452,562.522095 494.348450,562.647705 494.425110,562.496460 
z"/>
<path fill="#FDFDFD" opacity="1.000000" stroke="none" 
	d="
M552.898254,448.123566 
	C553.008179,447.402161 553.228333,447.182159 554.006104,446.964233 
	C554.723328,446.702240 554.918030,446.481842 555.039490,446.196747 
	C555.813049,445.224518 556.586609,444.252289 557.630615,443.123901 
	C559.028137,442.359772 560.137512,441.311951 561.287048,441.265839 
	C562.471375,441.218323 564.781799,442.297546 564.736328,442.625214 
	C564.158997,446.785065 567.789124,447.224152 570.010254,448.656708 
	C572.938782,450.545532 573.857056,454.054321 572.264771,457.113586 
	C571.140564,459.273529 570.720337,461.799896 570.002563,464.596954 
	C570.019348,465.031250 569.998169,465.002014 570.013489,465.009674 
	C568.418091,465.785736 566.477051,466.216309 565.269470,467.397034 
	C563.141663,469.477509 561.578491,468.953827 559.544434,467.052887 
	C559.218384,466.986511 558.962524,466.587677 558.977295,465.960785 
	C558.706909,462.852478 558.138062,460.650055 554.849915,461.121796 
	C554.849915,461.121796 554.926819,461.072266 554.791565,460.828186 
	C554.264893,460.443237 553.873413,460.302338 553.481995,460.161438 
	C553.481995,460.161469 553.179016,460.180908 553.093262,460.055603 
	C551.453674,456.140015 550.823425,452.341034 552.898254,448.123566 
z"/>
<path fill="#FDFDFD" opacity="1.000000" stroke="none" 
	d="
M519.923828,519.914673 
	C525.442017,519.913269 530.308105,520.536194 531.723633,527.645874 
	C532.023804,529.153320 536.316650,529.866516 538.770569,530.944275 
	C539.758240,531.378052 540.747620,531.808105 541.922485,532.321167 
	C535.973694,537.325867 535.816406,537.306824 529.137512,530.644775 
	C527.712708,532.292297 526.321899,533.900391 524.819580,535.637512 
	C530.432678,538.394897 530.432678,538.394897 526.088928,545.470337 
	C522.123291,542.465332 517.883911,539.746887 514.310303,536.331787 
	C512.605469,534.702576 512.165710,531.749573 511.152954,529.396179 
	C513.194031,528.596069 515.208740,527.715576 517.288452,527.033142 
	C518.190308,526.737183 519.225952,526.849304 519.963257,526.793945 
	C519.963257,524.568909 519.963257,522.576294 519.917603,520.208496 
	C519.872009,519.833252 520.002075,519.959351 519.923828,519.914673 
z"/>
<path fill="#FDFDFD" opacity="1.000000" stroke="none" 
	d="
M524.328491,580.107849 
	C524.858215,582.745789 525.708008,584.981750 525.768005,587.238647 
	C525.811523,588.874329 524.808167,590.537781 524.271606,592.188782 
	C523.726318,592.045105 523.180969,591.901489 522.635620,591.757812 
	C521.463318,585.715454 520.091370,579.702332 519.200256,573.618774 
	C518.731628,570.419678 524.932007,565.933960 527.651001,567.583435 
	C529.226929,568.539429 529.805786,571.138855 530.833313,572.998718 
	C528.870117,573.479492 526.906921,573.960266 524.735718,574.492004 
	C524.644104,575.616699 524.477234,577.665771 524.328491,580.107849 
z"/>
<path fill="#FDFDFD" opacity="1.000000" stroke="none" 
	d="
M504.756592,567.279053 
	C505.446381,566.939941 505.891937,566.880615 506.666260,566.905640 
	C508.139648,567.547424 509.284210,568.104797 511.520996,569.194031 
	C508.300934,571.227783 505.582672,572.944580 502.864380,574.661377 
	C502.250977,573.363037 500.896759,571.836243 501.209198,570.823669 
	C501.611603,569.519714 503.349609,568.628052 504.756592,567.279053 
z"/>
<path fill="#FCF6ED" opacity="1.000000" stroke="none" 
	d="
M554.967529,461.426910 
	C558.138062,460.650055 558.706909,462.852478 558.971863,465.723907 
	C557.662842,464.653290 556.374023,463.192657 554.967529,461.426910 
z"/>
<path fill="#FCF6ED" opacity="1.000000" stroke="none" 
	d="
M553.649353,460.422791 
	C553.873413,460.302338 554.264893,460.443237 554.794434,460.873840 
	C554.560547,461.003754 554.188660,460.843933 553.649353,460.422791 
z"/>
<path fill="#FCF6ED" opacity="1.000000" stroke="none" 
	d="
M554.801514,446.225952 
	C554.918030,446.481842 554.723328,446.702240 554.244629,446.932770 
	C554.064087,446.653717 554.240662,446.402893 554.801514,446.225952 
z"/>
</svg>